<svg width="265" height="123" viewBox="0 0 265 123" fill="none" xmlns="http://www.w3.org/2000/svg">
<path d="M29.008 76.6C29.008 74.952 29.376 73.48 30.112 72.184C30.864 70.872 31.88 69.856 33.16 69.136C34.456 68.4 35.904 68.032 37.504 68.032C39.376 68.032 41.016 68.512 42.424 69.472C43.832 70.432 44.816 71.76 45.376 73.456H41.512C41.128 72.656 40.584 72.056 39.88 71.656C39.192 71.256 38.392 71.056 37.48 71.056C36.504 71.056 35.632 71.288 34.864 71.752C34.112 72.2 33.52 72.84 33.088 73.672C32.672 74.504 32.464 75.48 32.464 76.6C32.464 77.704 32.672 78.68 33.088 79.528C33.52 80.36 34.112 81.008 34.864 81.472C35.632 81.92 36.504 82.144 37.48 82.144C38.392 82.144 39.192 81.944 39.88 81.544C40.584 81.128 41.128 80.52 41.512 79.72H45.376C44.816 81.432 43.832 82.768 42.424 83.728C41.032 84.672 39.392 85.144 37.504 85.144C35.904 85.144 34.456 84.784 33.16 84.064C31.88 83.328 30.864 82.312 30.112 81.016C29.376 79.72 29.008 78.248 29.008 76.6ZM54.1498 85.216C52.8698 85.216 51.7178 84.936 50.6938 84.376C49.6698 83.8 48.8618 82.992 48.2698 81.952C47.6938 80.912 47.4058 79.712 47.4058 78.352C47.4058 76.992 47.7018 75.792 48.2938 74.752C48.9018 73.712 49.7258 72.912 50.7658 72.352C51.8058 71.776 52.9658 71.488 54.2458 71.488C55.5258 71.488 56.6858 71.776 57.7258 72.352C58.7658 72.912 59.5818 73.712 60.1738 74.752C60.7818 75.792 61.0858 76.992 61.0858 78.352C61.0858 79.712 60.7738 80.912 60.1498 81.952C59.5418 82.992 58.7098 83.8 57.6538 84.376C56.6138 84.936 55.4458 85.216 54.1498 85.216ZM54.1498 82.288C54.7578 82.288 55.3258 82.144 55.8538 81.856C56.3978 81.552 56.8298 81.104 57.1498 80.512C57.4698 79.92 57.6298 79.2 57.6298 78.352C57.6298 77.088 57.2938 76.12 56.6218 75.448C55.9658 74.76 55.1578 74.416 54.1978 74.416C53.2378 74.416 52.4298 74.76 51.7738 75.448C51.1338 76.12 50.8138 77.088 50.8138 78.352C50.8138 79.616 51.1258 80.592 51.7498 81.28C52.3898 81.952 53.1898 82.288 54.1498 82.288ZM70.9185 71.512C72.5025 71.512 73.7825 72.016 74.7585 73.024C75.7345 74.016 76.2225 75.408 76.2225 77.2V85H72.8625V77.656C72.8625 76.6 72.5985 75.792 72.0705 75.232C71.5425 74.656 70.8225 74.368 69.9105 74.368C68.9825 74.368 68.2465 74.656 67.7025 75.232C67.1745 75.792 66.9105 76.6 66.9105 77.656V85H63.5505V71.704H66.9105V73.36C67.3585 72.784 67.9265 72.336 68.6145 72.016C69.3185 71.68 70.0865 71.512 70.9185 71.512ZM84.6257 71.488C85.6177 71.488 86.4897 71.688 87.2417 72.088C87.9937 72.472 88.5857 72.976 89.0177 73.6V71.704H92.4017V85.096C92.4017 86.328 92.1537 87.424 91.6577 88.384C91.1617 89.36 90.4177 90.128 89.4257 90.688C88.4337 91.264 87.2337 91.552 85.8257 91.552C83.9377 91.552 82.3857 91.112 81.1697 90.232C79.9697 89.352 79.2897 88.152 79.1297 86.632H82.4657C82.6417 87.24 83.0177 87.72 83.5937 88.072C84.1857 88.44 84.8977 88.624 85.7297 88.624C86.7057 88.624 87.4977 88.328 88.1057 87.736C88.7137 87.16 89.0177 86.28 89.0177 85.096V83.032C88.5857 83.656 87.9857 84.176 87.2177 84.592C86.4657 85.008 85.6017 85.216 84.6257 85.216C83.5057 85.216 82.4817 84.928 81.5537 84.352C80.6257 83.776 79.8897 82.968 79.3457 81.928C78.8177 80.872 78.5537 79.664 78.5537 78.304C78.5537 76.96 78.8177 75.768 79.3457 74.728C79.8897 73.688 80.6177 72.888 81.5297 72.328C82.4577 71.768 83.4897 71.488 84.6257 71.488ZM89.0177 78.352C89.0177 77.536 88.8577 76.84 88.5377 76.264C88.2177 75.672 87.7857 75.224 87.2417 74.92C86.6977 74.6 86.1137 74.44 85.4897 74.44C84.8657 74.44 84.2897 74.592 83.7617 74.896C83.2337 75.2 82.8017 75.648 82.4657 76.24C82.1457 76.816 81.9857 77.504 81.9857 78.304C81.9857 79.104 82.1457 79.808 82.4657 80.416C82.8017 81.008 83.2337 81.464 83.7617 81.784C84.3057 82.104 84.8817 82.264 85.4897 82.264C86.1137 82.264 86.6977 82.112 87.2417 81.808C87.7857 81.488 88.2177 81.04 88.5377 80.464C88.8577 79.872 89.0177 79.168 89.0177 78.352ZM99.0433 73.768C99.4753 73.064 100.035 72.512 100.723 72.112C101.427 71.712 102.227 71.512 103.123 71.512V75.04H102.235C101.179 75.04 100.379 75.288 99.8353 75.784C99.3073 76.28 99.0433 77.144 99.0433 78.376V85H95.6833V71.704H99.0433V73.768ZM104.522 78.304C104.522 76.96 104.786 75.768 105.314 74.728C105.858 73.688 106.586 72.888 107.498 72.328C108.426 71.768 109.458 71.488 110.594 71.488C111.586 71.488 112.45 71.688 113.186 72.088C113.938 72.488 114.538 72.992 114.986 73.6V71.704H118.37V85H114.986V83.056C114.554 83.68 113.954 84.2 113.186 84.616C112.434 85.016 111.562 85.216 110.57 85.216C109.45 85.216 108.426 84.928 107.498 84.352C106.586 83.776 105.858 82.968 105.314 81.928C104.786 80.872 104.522 79.664 104.522 78.304ZM114.986 78.352C114.986 77.536 114.826 76.84 114.506 76.264C114.186 75.672 113.754 75.224 113.21 74.92C112.666 74.6 112.082 74.44 111.458 74.44C110.834 74.44 110.258 74.592 109.73 74.896C109.202 75.2 108.77 75.648 108.434 76.24C108.114 76.816 107.954 77.504 107.954 78.304C107.954 79.104 108.114 79.808 108.434 80.416C108.77 81.008 109.202 81.464 109.73 81.784C110.274 82.104 110.85 82.264 111.458 82.264C112.082 82.264 112.666 82.112 113.21 81.808C113.754 81.488 114.186 81.04 114.506 80.464C114.826 79.872 114.986 79.168 114.986 78.352ZM125.564 74.464V80.896C125.564 81.344 125.668 81.672 125.876 81.88C126.1 82.072 126.468 82.168 126.98 82.168H128.54V85H126.428C123.596 85 122.18 83.624 122.18 80.872V74.464H120.596V71.704H122.18V68.416H125.564V71.704H128.54V74.464H125.564ZM143.509 71.704V85H140.125V83.32C139.693 83.896 139.125 84.352 138.421 84.688C137.733 85.008 136.981 85.168 136.165 85.168C135.125 85.168 134.205 84.952 133.405 84.52C132.605 84.072 131.973 83.424 131.509 82.576C131.061 81.712 130.837 80.688 130.837 79.504V71.704H134.197V79.024C134.197 80.08 134.461 80.896 134.989 81.472C135.517 82.032 136.237 82.312 137.149 82.312C138.077 82.312 138.805 82.032 139.333 81.472C139.861 80.896 140.125 80.08 140.125 79.024V71.704H143.509ZM150.184 67.24V85H146.824V67.24H150.184ZM152.64 78.304C152.64 76.96 152.904 75.768 153.432 74.728C153.976 73.688 154.704 72.888 155.616 72.328C156.544 71.768 157.576 71.488 158.712 71.488C159.704 71.488 160.568 71.688 161.304 72.088C162.056 72.488 162.656 72.992 163.104 73.6V71.704H166.488V85H163.104V83.056C162.672 83.68 162.072 84.2 161.304 84.616C160.552 85.016 159.68 85.216 158.688 85.216C157.568 85.216 156.544 84.928 155.616 84.352C154.704 83.776 153.976 82.968 153.432 81.928C152.904 80.872 152.64 79.664 152.64 78.304ZM163.104 78.352C163.104 77.536 162.944 76.84 162.624 76.264C162.304 75.672 161.872 75.224 161.328 74.92C160.784 74.6 160.2 74.44 159.576 74.44C158.952 74.44 158.376 74.592 157.848 74.896C157.32 75.2 156.888 75.648 156.552 76.24C156.232 76.816 156.072 77.504 156.072 78.304C156.072 79.104 156.232 79.808 156.552 80.416C156.888 81.008 157.32 81.464 157.848 81.784C158.392 82.104 158.968 82.264 159.576 82.264C160.2 82.264 160.784 82.112 161.328 81.808C161.872 81.488 162.304 81.04 162.624 80.464C162.944 79.872 163.104 79.168 163.104 78.352ZM173.681 74.464V80.896C173.681 81.344 173.785 81.672 173.993 81.88C174.217 82.072 174.585 82.168 175.097 82.168H176.657V85H174.545C171.713 85 170.297 83.624 170.297 80.872V74.464H168.713V71.704H170.297V68.416H173.681V71.704H176.657V74.464H173.681ZM180.778 70.12C180.186 70.12 179.69 69.936 179.29 69.568C178.906 69.184 178.714 68.712 178.714 68.152C178.714 67.592 178.906 67.128 179.29 66.76C179.69 66.376 180.186 66.184 180.778 66.184C181.37 66.184 181.858 66.376 182.242 66.76C182.642 67.128 182.842 67.592 182.842 68.152C182.842 68.712 182.642 69.184 182.242 69.568C181.858 69.936 181.37 70.12 180.778 70.12ZM182.434 71.704V85H179.074V71.704H182.434ZM191.658 85.216C190.378 85.216 189.226 84.936 188.202 84.376C187.178 83.8 186.37 82.992 185.778 81.952C185.202 80.912 184.914 79.712 184.914 78.352C184.914 76.992 185.21 75.792 185.802 74.752C186.41 73.712 187.234 72.912 188.274 72.352C189.314 71.776 190.474 71.488 191.754 71.488C193.034 71.488 194.194 71.776 195.234 72.352C196.274 72.912 197.09 73.712 197.682 74.752C198.29 75.792 198.594 76.992 198.594 78.352C198.594 79.712 198.282 80.912 197.658 81.952C197.05 82.992 196.218 83.8 195.162 84.376C194.122 84.936 192.954 85.216 191.658 85.216ZM191.658 82.288C192.266 82.288 192.834 82.144 193.362 81.856C193.906 81.552 194.338 81.104 194.658 80.512C194.978 79.92 195.138 79.2 195.138 78.352C195.138 77.088 194.802 76.12 194.13 75.448C193.474 74.76 192.666 74.416 191.706 74.416C190.746 74.416 189.938 74.76 189.282 75.448C188.642 76.12 188.322 77.088 188.322 78.352C188.322 79.616 188.634 80.592 189.258 81.28C189.898 81.952 190.698 82.288 191.658 82.288ZM208.426 71.512C210.01 71.512 211.29 72.016 212.266 73.024C213.242 74.016 213.73 75.408 213.73 77.2V85H210.37V77.656C210.37 76.6 210.106 75.792 209.578 75.232C209.05 74.656 208.33 74.368 207.418 74.368C206.49 74.368 205.754 74.656 205.21 75.232C204.682 75.792 204.418 76.6 204.418 77.656V85H201.058V71.704H204.418V73.36C204.866 72.784 205.434 72.336 206.122 72.016C206.826 71.68 207.594 71.512 208.426 71.512ZM222.014 85.216C220.926 85.216 219.95 85.024 219.086 84.64C218.222 84.24 217.534 83.704 217.022 83.032C216.526 82.36 216.254 81.616 216.206 80.8H219.59C219.654 81.312 219.902 81.736 220.334 82.072C220.782 82.408 221.334 82.576 221.99 82.576C222.63 82.576 223.126 82.448 223.478 82.192C223.846 81.936 224.03 81.608 224.03 81.208C224.03 80.776 223.806 80.456 223.358 80.248C222.926 80.024 222.23 79.784 221.27 79.528C220.278 79.288 219.462 79.04 218.822 78.784C218.198 78.528 217.654 78.136 217.19 77.608C216.742 77.08 216.518 76.368 216.518 75.472C216.518 74.736 216.726 74.064 217.142 73.456C217.574 72.848 218.182 72.368 218.966 72.016C219.766 71.664 220.702 71.488 221.774 71.488C223.358 71.488 224.622 71.888 225.566 72.688C226.51 73.472 227.03 74.536 227.126 75.88H223.91C223.862 75.352 223.638 74.936 223.238 74.632C222.854 74.312 222.334 74.152 221.678 74.152C221.07 74.152 220.598 74.264 220.262 74.488C219.942 74.712 219.782 75.024 219.782 75.424C219.782 75.872 220.006 76.216 220.454 76.456C220.902 76.68 221.598 76.912 222.542 77.152C223.502 77.392 224.294 77.64 224.918 77.896C225.542 78.152 226.078 78.552 226.526 79.096C226.99 79.624 227.23 80.328 227.246 81.208C227.246 81.976 227.03 82.664 226.598 83.272C226.182 83.88 225.574 84.36 224.774 84.712C223.99 85.048 223.07 85.216 222.014 85.216ZM234.348 67.96L233.964 79.552H231.132L230.724 67.96H234.348ZM232.62 85.168C232.012 85.168 231.508 84.984 231.108 84.616C230.724 84.232 230.532 83.76 230.532 83.2C230.532 82.64 230.724 82.176 231.108 81.808C231.508 81.424 232.012 81.232 232.62 81.232C233.212 81.232 233.7 81.424 234.084 81.808C234.468 82.176 234.66 82.64 234.66 83.2C234.66 83.76 234.468 84.232 234.084 84.616C233.7 84.984 233.212 85.168 232.62 85.168Z" fill="black"/>
<path d="M148.225 30.1141L142.623 30.1141C141.737 30.1141 141.02 29.3987 141.02 28.516C141.02 27.6334 141.737 26.918 142.623 26.918L148.225 26.918C149.11 26.918 149.828 27.6334 149.828 28.516C149.828 29.3987 149.11 30.1141 148.225 30.1141Z" fill="#E65C64"/>
<path d="M133.558 21.0755C132.672 21.0755 131.955 20.3604 131.955 19.4776L131.955 13.8925C131.955 13.0099 132.672 12.2946 133.558 12.2946C134.443 12.2946 135.161 13.0099 135.161 13.8925L135.161 19.4776C135.161 20.3604 134.443 21.0755 133.558 21.0755Z" fill="#F26D76"/>
<path d="M136.112 1.4062C134.242 -0.468734 131.186 -0.468734 129.316 1.4062C127.446 3.27049 127.446 6.31721 129.316 8.18149C130.224 9.08704 131.431 9.58766 132.714 9.58766C133.996 9.58766 135.204 9.08695 136.112 8.18149C137.993 6.31727 137.993 3.27049 136.112 1.4062ZM133.851 5.91534C133.201 6.5642 132.202 6.53816 131.583 5.92204C130.969 5.31029 130.969 4.27727 131.583 3.66556C132.213 3.03486 133.224 3.04443 133.839 3.65922C134.492 4.30677 134.457 5.31594 133.851 5.91534Z" fill="#FF6666"/>
<path d="M153.948 21.0749C154.834 21.0749 155.551 20.3595 155.551 19.4769C155.551 18.5944 154.834 17.8789 153.948 17.8789C153.063 17.8789 152.345 18.5944 152.345 19.4769C152.345 20.3595 153.063 21.0749 153.948 21.0749Z" fill="#43BFBF"/>
<path d="M142.623 9.77715C143.508 9.77715 144.225 9.06171 144.225 8.17919C144.225 7.29667 143.508 6.58124 142.623 6.58124C141.737 6.58124 141.02 7.29667 141.02 8.17919C141.02 9.06171 141.737 9.77715 142.623 9.77715Z" fill="#36D9D9"/>
<path d="M153.948 39.1549C154.834 39.1549 155.551 38.4392 155.551 37.5569C155.551 36.6742 154.834 35.9588 153.948 35.9588C153.063 35.9588 152.345 36.6742 152.345 37.5569C152.345 38.4392 153.063 39.1549 153.948 39.1549Z" fill="#43BFBF"/>
<path d="M124.484 9.77715C125.369 9.77715 126.087 9.06171 126.087 8.17919C126.087 7.29667 125.369 6.58124 124.484 6.58124C123.598 6.58124 122.881 7.29667 122.881 8.17919C122.881 9.06171 123.598 9.77715 124.484 9.77715Z" fill="#36D9D9"/>
<path d="M155.561 4.98213C154.676 4.98213 153.958 4.26683 153.958 3.38417L153.958 1.78622C153.958 0.903532 154.676 0.188263 155.561 0.188263C156.447 0.188263 157.164 0.903532 157.164 1.78622L157.164 3.38417C157.164 4.26683 156.447 4.98213 155.561 4.98213Z" fill="#FDB71A"/>
<path d="M155.561 12.9717C154.676 12.9717 153.958 12.2564 153.958 11.3738L153.958 9.77584C153.958 8.89316 154.676 8.17789 155.561 8.17789C156.447 8.17789 157.164 8.89316 157.164 9.77584L157.164 11.3738C157.164 12.2564 156.447 12.9717 155.561 12.9717Z" fill="#F9A926"/>
<path d="M152.352 8.17879L150.749 8.17879C149.864 8.17879 149.146 7.46352 149.146 6.58083C149.146 5.69818 149.864 4.98288 150.749 4.98288L152.352 4.98288C153.238 4.98288 153.955 5.69818 153.955 6.58083C153.955 7.46352 153.238 8.17879 152.352 8.17879Z" fill="#E1B554"/>
<path d="M160.366 8.17879L158.763 8.17879C157.878 8.17879 157.16 7.46352 157.16 6.58083C157.16 5.69818 157.878 4.98288 158.763 4.98288L160.366 4.98288C161.251 4.98288 161.969 5.69818 161.969 6.58083C161.969 7.46352 161.251 8.17879 160.366 8.17879Z" fill="#F9A926"/>
<path d="M160.685 24.8441C158.815 22.969 155.759 22.969 153.889 24.8441C152.019 26.7084 152.019 29.7549 153.889 31.6191C154.797 32.5247 156.004 33.0254 157.287 33.0254C158.569 33.0254 159.777 32.5247 160.685 31.6191C162.565 29.7549 162.565 26.708 160.685 24.8441ZM158.424 29.3524C157.776 29.9999 156.778 29.9789 156.156 29.3599C155.542 28.7481 155.542 27.7151 156.156 27.1033C156.786 26.4725 157.797 26.4823 158.412 27.0971C159.062 27.7426 159.032 28.7504 158.424 29.3524Z" fill="#F9A926"/>
<path d="M138.755 24.9332C138.345 24.9332 137.935 24.777 137.622 24.465C136.996 23.8414 136.996 22.8291 137.622 22.2055L147.628 12.2301C148.254 11.6059 149.269 11.6059 149.895 12.2301C150.521 12.8537 150.521 13.8659 149.895 14.4897L139.889 24.465C139.576 24.777 139.165 24.9332 138.755 24.9332Z" fill="#FFC033"/>
<path d="M137.613 24.4657C137.926 24.778 138.337 24.9342 138.746 24.9342C139.156 24.9342 139.567 24.778 139.88 24.4657L149.886 14.4905C150.512 13.8669 150.512 12.8547 149.886 12.2309L137.613 24.4657Z" fill="#F9A926"/>
<path d="M125.445 40.7761L125.445 45.2877L115.139 48.9052C114.505 49.128 113.884 48.9362 113.476 48.5315C113.065 48.1235 112.87 47.5012 113.094 46.8665L116.728 36.6033L121.264 36.6033L123.351 38.6858L125.445 40.7761Z" fill="#F26D76"/>
<path d="M125.442 40.7766L125.442 45.2882L115.136 48.906C114.502 49.1285 113.881 48.9367 113.473 48.532L123.348 38.6866L125.442 40.7766Z" fill="#E65C64"/>
<path d="M120.873 30.5635L131.511 41.1733L137.149 41.1733L143.153 39.064C143.989 38.7648 144.424 37.8596 144.136 37.0184L125.019 17.971C124.188 17.6734 123.267 18.1082 122.978 18.9404L120.873 24.8867L120.873 30.5635Z" fill="#F26D76"/>
<path d="M131.511 41.1734L137.149 41.1734L143.153 39.0642C143.989 38.7649 144.424 37.8597 144.136 37.0189L134.578 27.4953L126.185 35.8618L131.511 41.1734Z" fill="#E65C64"/>
<path d="M120.861 24.9066L116.726 36.6039L125.446 45.2861L125.478 45.2753L137.168 41.1632L120.861 24.9066Z" fill="#FFC033"/>
<path d="M125.45 45.2863L125.482 45.2759L137.172 41.1638L129.022 33.0386L121.09 40.9456L125.45 45.2863Z" fill="#F9A926"/>
<path d="M144.888 41.4148C144.478 41.4148 144.068 41.2587 143.755 40.9467L121.086 18.3481C120.46 17.7245 120.46 16.7123 121.086 16.0885C121.712 15.4643 122.727 15.4643 123.353 16.0885L146.021 38.6871C146.647 39.3107 146.647 40.3231 146.021 40.9467C145.708 41.2587 145.298 41.4148 144.888 41.4148Z" fill="#36D9D9"/>
<path d="M143.75 40.9462C144.063 41.2582 144.473 41.4143 144.883 41.4143C145.293 41.4143 145.704 41.2582 146.017 40.9462C146.643 40.3226 146.643 39.3103 146.017 38.6863L134.682 27.3873L132.416 29.6468L143.75 40.9462Z" fill="#43BFBF"/>
</svg>
