<svg width="249" height="84" viewBox="0 0 249 84" fill="none" xmlns="http://www.w3.org/2000/svg">
<rect y="10.7262" width="241.338" height="72.4015" rx="20" fill="#C4C4C4"/>
<rect x="7.6615" width="241.338" height="72.4015" rx="20" fill="#1877F2"/>
<path d="M59.2954 36.3572L54.6341 29.6549L50.0556 36.3572H44.9254L52.069 26.5382L45.284 17.0501H50.359L54.7996 23.3112L59.1575 17.0501H63.9843L57.2544 26.3727L64.4531 36.3572H59.2954Z" fill="white"/>
<path d="M85.611 36.3572L80.9497 29.6549L76.3712 36.3572H71.241L78.3846 26.5382L71.5996 17.0501H76.6746L81.1152 23.3112L85.4731 17.0501H90.2998L83.57 26.3727L90.7687 36.3572H85.611Z" fill="white"/>
<path d="M111.927 36.3572L107.265 29.6549L102.687 36.3572H97.5566L104.7 26.5382L97.9152 17.0501H102.99L107.431 23.3112L111.789 17.0501H116.615L109.886 26.3727L117.084 36.3572H111.927Z" fill="white"/>
<path d="M153.218 36.3572L148.557 29.6549L143.978 36.3572H138.848L145.992 26.5382L139.207 17.0501H144.282L148.722 23.3112L153.08 17.0501H157.907L151.177 26.3727L158.376 36.3572H153.218Z" fill="white"/>
<path d="M179.534 36.3572L174.872 29.6549L170.294 36.3572H165.164L172.307 26.5382L165.522 17.0501H170.597L175.038 23.3112L179.396 17.0501H184.223L177.493 26.3727L184.691 36.3572H179.534Z" fill="white"/>
<path d="M205.849 36.3572L201.188 29.6549L196.609 36.3572H191.479L198.623 26.5382L191.838 17.0501H196.913L201.353 23.3112L205.711 17.0501H210.538L203.808 26.3727L211.007 36.3572H205.849Z" fill="white"/>
<path d="M110.892 57.5254V58.0188H105.711V50.5104H110.731V51.0039H106.258V53.9643H110.259V54.4469H106.258V57.5254H110.892Z" fill="white"/>
<path d="M115.45 52.3768C116.151 52.3768 116.705 52.5806 117.113 52.9882C117.52 53.3958 117.724 53.9821 117.724 54.7473V58.0188H117.188V54.7902C117.188 54.1609 117.027 53.6818 116.705 53.3529C116.39 53.0239 115.947 52.8595 115.375 52.8595C114.717 52.8595 114.199 53.0561 113.82 53.4494C113.441 53.8427 113.251 54.3719 113.251 55.0369V58.0188H112.715V52.4197H113.23V53.6318C113.423 53.2385 113.709 52.931 114.088 52.7093C114.474 52.4876 114.928 52.3768 115.45 52.3768Z" fill="white"/>
<path d="M122.71 57.6648C122.574 57.7935 122.403 57.8936 122.195 57.9651C121.995 58.0295 121.784 58.0617 121.562 58.0617C121.076 58.0617 120.701 57.9294 120.436 57.6648C120.172 57.3931 120.039 57.0176 120.039 56.5385V52.8809H119.01V52.4197H120.039V51.1969H120.576V52.4197H122.356V52.8809H120.576V56.4849C120.576 56.8496 120.661 57.1285 120.833 57.3216C121.012 57.5075 121.273 57.6004 121.616 57.6004C121.966 57.6004 122.256 57.4967 122.485 57.2894L122.71 57.6648Z" fill="white"/>
<path d="M128.737 55.3479H123.921C123.935 55.7841 124.046 56.1739 124.253 56.5171C124.461 56.8532 124.74 57.1142 125.09 57.3001C125.448 57.486 125.848 57.579 126.291 57.579C126.656 57.579 126.992 57.5146 127.3 57.3859C127.614 57.25 127.875 57.0534 128.083 56.796L128.394 57.1499C128.151 57.4431 127.843 57.6684 127.471 57.8257C127.107 57.983 126.71 58.0617 126.281 58.0617C125.723 58.0617 125.226 57.9401 124.79 57.697C124.353 57.4538 124.01 57.1178 123.76 56.6887C123.517 56.2597 123.395 55.7698 123.395 55.2192C123.395 54.6758 123.51 54.1895 123.739 53.7605C123.975 53.3243 124.296 52.9846 124.704 52.7415C125.111 52.4984 125.569 52.3768 126.077 52.3768C126.585 52.3768 127.039 52.4984 127.439 52.7415C127.847 52.9775 128.165 53.31 128.394 53.739C128.63 54.1681 128.748 54.6543 128.748 55.1978L128.737 55.3479ZM126.077 52.8488C125.684 52.8488 125.33 52.9381 125.015 53.1169C124.7 53.2885 124.446 53.5352 124.253 53.857C124.067 54.1716 123.96 54.5292 123.932 54.9296H128.222C128.201 54.5292 128.093 54.1716 127.9 53.857C127.707 53.5424 127.453 53.2957 127.139 53.1169C126.824 52.9381 126.47 52.8488 126.077 52.8488Z" fill="white"/>
<path d="M130.922 53.6425C131.093 53.2349 131.361 52.9238 131.726 52.7093C132.091 52.4876 132.534 52.3768 133.056 52.3768V52.9024L132.927 52.8917C132.305 52.8917 131.819 53.0883 131.469 53.4816C131.118 53.8677 130.943 54.4076 130.943 55.1012V58.0188H130.407V52.4197H130.922V53.6425Z" fill="white"/>
<path d="M140.74 58.0724C140.004 58.0724 139.339 57.9079 138.745 57.579C138.152 57.2429 137.683 56.7852 137.34 56.206C137.004 55.6268 136.836 54.9797 136.836 54.2646C136.836 53.5495 137.004 52.9024 137.34 52.3232C137.683 51.744 138.152 51.2899 138.745 50.9609C139.339 50.6249 140.004 50.4568 140.74 50.4568C141.477 50.4568 142.142 50.6213 142.735 50.9502C143.329 51.2792 143.794 51.7332 144.13 52.3124C144.473 52.8917 144.645 53.5424 144.645 54.2646C144.645 54.9868 144.473 55.6376 144.13 56.2168C143.794 56.796 143.329 57.25 142.735 57.579C142.142 57.9079 141.477 58.0724 140.74 58.0724ZM140.74 57.5683C141.37 57.5683 141.938 57.4252 142.446 57.1392C142.953 56.8532 143.354 56.4599 143.647 55.9593C143.94 55.4516 144.087 54.8867 144.087 54.2646C144.087 53.6425 143.94 53.0812 143.647 52.5806C143.354 52.0729 142.953 51.676 142.446 51.39C141.938 51.104 141.37 50.9609 140.74 50.9609C140.111 50.9609 139.539 51.104 139.024 51.39C138.516 51.676 138.116 52.0729 137.823 52.5806C137.53 53.0812 137.383 53.6425 137.383 54.2646C137.383 54.8867 137.53 55.4516 137.823 55.9593C138.116 56.4599 138.516 56.8532 139.024 57.1392C139.539 57.4252 140.111 57.5683 140.74 57.5683Z" fill="white"/>
<path d="M147.874 51.0039H145.171V50.5104H151.124V51.0039H148.422V58.0188H147.874V51.0039Z" fill="white"/>
<path d="M155.173 50.5104C156.117 50.5104 156.857 50.7357 157.394 51.1862C157.93 51.6295 158.198 52.2481 158.198 53.0418C158.198 53.8284 157.93 54.4469 157.394 54.8974C156.857 55.3408 156.117 55.5625 155.173 55.5625H153.028V58.0188H152.481V50.5104H155.173ZM155.173 55.0691C155.974 55.0691 156.586 54.8939 157.008 54.5435C157.429 54.1931 157.64 53.6925 157.64 53.0418C157.64 52.3911 157.429 51.8905 157.008 51.5402C156.586 51.1826 155.974 51.0039 155.173 51.0039H153.028V55.0691H155.173Z" fill="white"/>
</svg>
