<svg viewBox="0 0 570 113" fill="none" xmlns="http://www.w3.org/2000/svg">
<rect width="200" height="48" rx="24" fill="url(#paint0_linear_400_906)"/>
<path d="M25.72 24.368C25.912 23.2587 26.3227 22.272 26.952 21.408C27.592 20.5333 28.3867 19.856 29.336 19.376C30.2853 18.8853 31.3147 18.64 32.424 18.64C33.768 18.64 34.8453 18.9653 35.656 19.616C36.4773 20.2667 36.9253 21.168 37 22.32H33.992C33.8533 21.9467 33.608 21.664 33.256 21.472C32.9147 21.2693 32.4933 21.168 31.992 21.168C31.1067 21.168 30.344 21.4613 29.704 22.048C29.0747 22.624 28.6747 23.3973 28.504 24.368C28.4507 24.688 28.424 24.9653 28.424 25.2C28.424 25.9893 28.6533 26.5973 29.112 27.024C29.5707 27.4507 30.2213 27.664 31.064 27.664C31.7467 27.664 32.3493 27.4933 32.872 27.152C33.3947 26.8 33.816 26.304 34.136 25.664H30.68L31.016 23.664H36.968L36.52 26.208C36.2 26.8907 35.7413 27.5253 35.144 28.112C34.5573 28.6987 33.8587 29.1733 33.048 29.536C32.2373 29.8987 31.3627 30.08 30.424 30.08C29.4533 30.08 28.6 29.8933 27.864 29.52C27.1387 29.136 26.5787 28.6027 26.184 27.92C25.8 27.2373 25.608 26.4427 25.608 25.536C25.608 25.2267 25.6453 24.8373 25.72 24.368ZM41.4435 30.128C40.6755 30.128 39.9928 29.9733 39.3955 29.664C38.7982 29.3547 38.3342 28.9173 38.0035 28.352C37.6835 27.7867 37.5235 27.1307 37.5235 26.384C37.5235 25.3707 37.7635 24.448 38.2435 23.616C38.7235 22.784 39.3848 22.1333 40.2275 21.664C41.0702 21.184 42.0088 20.944 43.0435 20.944C43.8115 20.944 44.4942 21.104 45.0915 21.424C45.6995 21.7333 46.1688 22.1707 46.4995 22.736C46.8302 23.3013 46.9955 23.9573 46.9955 24.704C46.9955 25.728 46.7502 26.656 46.2595 27.488C45.7795 28.3093 45.1128 28.9547 44.2595 29.424C43.4168 29.8933 42.4782 30.128 41.4435 30.128ZM41.8275 27.776C42.2755 27.776 42.6755 27.6427 43.0275 27.376C43.3902 27.0987 43.6675 26.7467 43.8595 26.32C44.0622 25.8827 44.1635 25.4293 44.1635 24.96C44.1635 24.4267 44.0195 24.016 43.7315 23.728C43.4435 23.44 43.0808 23.296 42.6435 23.296C42.1848 23.296 41.7795 23.4347 41.4275 23.712C41.0862 23.9787 40.8195 24.3307 40.6275 24.768C40.4355 25.2053 40.3395 25.664 40.3395 26.144C40.3395 26.6667 40.4782 27.072 40.7555 27.36C41.0328 27.6373 41.3902 27.776 41.8275 27.776ZM55.7181 30.112C54.5021 30.112 53.5101 29.8507 52.7421 29.328C51.9848 28.7947 51.6061 28.0427 51.6061 27.072C51.6061 26.976 51.6168 26.832 51.6381 26.64H54.4861C54.4541 27.0453 54.5501 27.3653 54.7741 27.6C54.9981 27.8347 55.3395 27.952 55.7981 27.952C56.2141 27.952 56.5395 27.8613 56.7741 27.68C57.0195 27.4987 57.1421 27.2427 57.1421 26.912C57.1421 26.5707 56.9875 26.2933 56.6781 26.08C56.3795 25.8667 55.9101 25.6267 55.2701 25.36C54.6515 25.104 54.1448 24.864 53.7501 24.64C53.3661 24.4053 53.0301 24.0907 52.7421 23.696C52.4541 23.3013 52.3101 22.8053 52.3101 22.208C52.2995 21.472 52.4808 20.832 52.8541 20.288C53.2275 19.744 53.7448 19.328 54.4061 19.04C55.0675 18.752 55.8248 18.608 56.6781 18.608C57.4461 18.608 58.1288 18.7307 58.7261 18.976C59.3235 19.2107 59.7875 19.5573 60.1181 20.016C60.4488 20.464 60.6141 20.9973 60.6141 21.616C60.6141 21.776 60.6088 21.8933 60.5981 21.968H57.6861C57.6968 21.9253 57.7021 21.8613 57.7021 21.776C57.7021 21.4773 57.5955 21.2373 57.3821 21.056C57.1795 20.864 56.8968 20.768 56.5341 20.768C56.1501 20.768 55.8355 20.864 55.5901 21.056C55.3555 21.2373 55.2381 21.488 55.2381 21.808C55.2381 22.128 55.3875 22.4 55.6861 22.624C55.9848 22.8373 56.4488 23.088 57.0781 23.376C57.7075 23.664 58.2195 23.9307 58.6141 24.176C59.0195 24.4213 59.3661 24.752 59.6541 25.168C59.9421 25.5733 60.0861 26.0747 60.0861 26.672C60.0861 27.3333 59.9101 27.9253 59.5581 28.448C59.2061 28.9707 58.6995 29.3813 58.0381 29.68C57.3768 29.968 56.6035 30.112 55.7181 30.112ZM65.2873 30.128C64.5193 30.128 63.8366 29.9733 63.2393 29.664C62.6419 29.3547 62.1779 28.9173 61.8473 28.352C61.5273 27.7867 61.3673 27.1307 61.3673 26.384C61.3673 25.3707 61.6073 24.448 62.0872 23.616C62.5673 22.784 63.2286 22.1333 64.0713 21.664C64.9139 21.184 65.8526 20.944 66.8873 20.944C67.6553 20.944 68.3379 21.104 68.9353 21.424C69.5433 21.7333 70.0126 22.1707 70.3433 22.736C70.6739 23.3013 70.8393 23.9573 70.8393 24.704C70.8393 25.728 70.5939 26.656 70.1033 27.488C69.6233 28.3093 68.9566 28.9547 68.1033 29.424C67.2606 29.8933 66.3219 30.128 65.2873 30.128ZM65.6713 27.776C66.1193 27.776 66.5193 27.6427 66.8713 27.376C67.2339 27.0987 67.5113 26.7467 67.7033 26.32C67.9059 25.8827 68.0073 25.4293 68.0073 24.96C68.0073 24.4267 67.8633 24.016 67.5753 23.728C67.2873 23.44 66.9246 23.296 66.4873 23.296C66.0286 23.296 65.6233 23.4347 65.2713 23.712C64.9299 23.9787 64.6633 24.3307 64.4713 24.768C64.2793 25.2053 64.1833 25.664 64.1833 26.144C64.1833 26.6667 64.3219 27.072 64.5993 27.36C64.8766 27.6373 65.2339 27.776 65.6713 27.776ZM71.6508 25.536C71.8108 24.608 72.1414 23.7973 72.6428 23.104C73.1441 22.4107 73.7628 21.8773 74.4988 21.504C75.2454 21.1307 76.0561 20.944 76.9308 20.944C78.0508 20.944 78.9361 21.2373 79.5868 21.824C80.2374 22.4107 80.5841 23.2373 80.6267 24.304H77.7148C77.5974 23.6213 77.1814 23.28 76.4668 23.28C75.9654 23.28 75.5334 23.4773 75.1708 23.872C74.8081 24.256 74.5628 24.8107 74.4348 25.536C74.3921 25.76 74.3708 25.9947 74.3708 26.24C74.3708 26.7413 74.4881 27.1253 74.7228 27.392C74.9574 27.6587 75.2774 27.792 75.6828 27.792C76.3868 27.792 76.9148 27.4507 77.2668 26.768H80.1948C79.7788 27.8133 79.1388 28.6347 78.2748 29.232C77.4108 29.8293 76.4241 30.128 75.3148 30.128C74.1628 30.128 73.2454 29.8133 72.5628 29.184C71.8908 28.544 71.5548 27.6747 71.5548 26.576C71.5548 26.2453 71.5868 25.8987 71.6508 25.536ZM84.2023 20.144C83.7756 20.144 83.4343 20.032 83.1783 19.808C82.9329 19.5733 82.8103 19.28 82.8103 18.928C82.8103 18.448 82.9969 18.0373 83.3703 17.696C83.7436 17.3547 84.1969 17.184 84.7303 17.184C85.1569 17.184 85.4929 17.3013 85.7383 17.536C85.9836 17.76 86.1063 18.0533 86.1063 18.416C86.1063 18.8853 85.9196 19.2907 85.5463 19.632C85.1729 19.9733 84.7249 20.144 84.2023 20.144ZM85.3863 21.072L83.8183 30H81.0823L82.6503 21.072H85.3863ZM86.057 25.52C86.217 24.6027 86.5317 23.7973 87.001 23.104C87.4703 22.4107 88.0357 21.8773 88.697 21.504C89.3583 21.1307 90.057 20.944 90.793 20.944C91.4223 20.944 91.9503 21.072 92.377 21.328C92.8037 21.584 93.113 21.92 93.305 22.336L93.529 21.072H96.265L94.681 30H91.945L92.185 28.736C91.8437 29.152 91.4117 29.488 90.889 29.744C90.3663 30 89.7903 30.128 89.161 30.128C88.5317 30.128 87.9717 29.984 87.481 29.696C87.001 29.408 86.6277 29.0027 86.361 28.48C86.0943 27.9467 85.961 27.3227 85.961 26.608C85.961 26.2667 85.993 25.904 86.057 25.52ZM92.745 25.536C92.777 25.344 92.793 25.168 92.793 25.008C92.793 24.4853 92.6383 24.0747 92.329 23.776C92.0303 23.4773 91.6463 23.328 91.177 23.328C90.633 23.328 90.137 23.5253 89.689 23.92C89.241 24.304 88.9583 24.8373 88.841 25.52C88.809 25.712 88.793 25.888 88.793 26.048C88.793 26.5707 88.9423 26.9867 89.241 27.296C89.5503 27.5947 89.9343 27.744 90.393 27.744C90.937 27.744 91.433 27.5467 91.881 27.152C92.329 26.7573 92.617 26.2187 92.745 25.536ZM101.492 18.16L99.3964 30H96.6604L98.7564 18.16H101.492ZM109.162 30.128C108.394 30.128 107.712 29.9733 107.114 29.664C106.517 29.3547 106.053 28.9173 105.722 28.352C105.402 27.7867 105.242 27.1307 105.242 26.384C105.242 25.3707 105.482 24.448 105.962 23.616C106.442 22.784 107.104 22.1333 107.946 21.664C108.789 21.184 109.728 20.944 110.762 20.944C111.53 20.944 112.213 21.104 112.81 21.424C113.418 21.7333 113.888 22.1707 114.218 22.736C114.549 23.3013 114.714 23.9573 114.714 24.704C114.714 25.728 114.469 26.656 113.978 27.488C113.498 28.3093 112.832 28.9547 111.978 29.424C111.136 29.8933 110.197 30.128 109.162 30.128ZM109.546 27.776C109.994 27.776 110.394 27.6427 110.746 27.376C111.109 27.0987 111.386 26.7467 111.578 26.32C111.781 25.8827 111.882 25.4293 111.882 24.96C111.882 24.4267 111.738 24.016 111.45 23.728C111.162 23.44 110.8 23.296 110.362 23.296C109.904 23.296 109.498 23.4347 109.146 23.712C108.805 23.9787 108.538 24.3307 108.346 24.768C108.154 25.2053 108.058 25.664 108.058 26.144C108.058 26.6667 108.197 27.072 108.474 27.36C108.752 27.6373 109.109 27.776 109.546 27.776ZM122.294 20.976C123.19 20.976 123.894 21.2267 124.406 21.728C124.918 22.2293 125.174 22.928 125.174 23.824C125.174 24.1227 125.142 24.4427 125.078 24.784L124.15 30H121.43L122.294 25.152C122.326 24.9707 122.342 24.8107 122.342 24.672C122.342 24.224 122.214 23.8773 121.958 23.632C121.712 23.3867 121.366 23.264 120.918 23.264C120.384 23.264 119.936 23.4293 119.574 23.76C119.211 24.0907 118.976 24.5547 118.87 25.152V25.072L118.006 30H115.27L116.838 21.072H119.574L119.366 22.272C119.718 21.8773 120.144 21.5627 120.646 21.328C121.158 21.0933 121.707 20.976 122.294 20.976ZM139.818 18.768L139.45 20.928H136.458L134.858 30H132.122L133.722 20.928H130.746L131.13 18.768H139.818ZM142.919 30.128C142.215 30.128 141.581 30.016 141.015 29.792C140.461 29.568 140.023 29.2587 139.703 28.864C139.383 28.4587 139.223 27.9947 139.223 27.472C139.223 27.3973 139.234 27.264 139.255 27.072H141.895C141.874 27.4027 141.97 27.6693 142.183 27.872C142.407 28.064 142.722 28.16 143.127 28.16C143.469 28.16 143.751 28.096 143.975 27.968C144.199 27.84 144.311 27.6587 144.311 27.424C144.311 27.2 144.189 27.024 143.943 26.896C143.709 26.7573 143.314 26.592 142.759 26.4C142.183 26.208 141.698 26.0213 141.303 25.84C140.919 25.648 140.589 25.376 140.311 25.024C140.034 24.672 139.895 24.2293 139.895 23.696C139.895 23.1733 140.05 22.704 140.359 22.288C140.669 21.8613 141.101 21.5307 141.655 21.296C142.221 21.0613 142.871 20.944 143.607 20.944C144.343 20.944 144.983 21.0667 145.527 21.312C146.071 21.5467 146.493 21.8773 146.791 22.304C147.09 22.7307 147.239 23.2107 147.239 23.744L147.223 23.984H144.743C144.765 23.664 144.669 23.408 144.455 23.216C144.242 23.024 143.938 22.928 143.543 22.928C143.234 22.928 142.978 22.992 142.775 23.12C142.583 23.248 142.487 23.424 142.487 23.648C142.487 23.8827 142.615 24.08 142.871 24.24C143.138 24.3893 143.549 24.56 144.103 24.752C144.679 24.944 145.154 25.136 145.527 25.328C145.911 25.5093 146.237 25.7707 146.503 26.112C146.781 26.4427 146.919 26.8587 146.919 27.36C146.919 27.936 146.743 28.432 146.391 28.848C146.05 29.264 145.575 29.584 144.967 29.808C144.37 30.0213 143.687 30.128 142.919 30.128ZM152.209 30.128C151.441 30.128 150.758 29.9733 150.161 29.664C149.564 29.3547 149.1 28.9173 148.769 28.352C148.449 27.7867 148.289 27.1307 148.289 26.384C148.289 25.3707 148.529 24.448 149.009 23.616C149.489 22.784 150.15 22.1333 150.993 21.664C151.836 21.184 152.774 20.944 153.809 20.944C154.577 20.944 155.26 21.104 155.857 21.424C156.465 21.7333 156.934 22.1707 157.265 22.736C157.596 23.3013 157.761 23.9573 157.761 24.704C157.761 25.728 157.516 26.656 157.025 27.488C156.545 28.3093 155.878 28.9547 155.025 29.424C154.182 29.8933 153.244 30.128 152.209 30.128ZM152.593 27.776C153.041 27.776 153.441 27.6427 153.793 27.376C154.156 27.0987 154.433 26.7467 154.625 26.32C154.828 25.8827 154.929 25.4293 154.929 24.96C154.929 24.4267 154.785 24.016 154.497 23.728C154.209 23.44 153.846 23.296 153.409 23.296C152.95 23.296 152.545 23.4347 152.193 23.712C151.852 23.9787 151.585 24.3307 151.393 24.768C151.201 25.2053 151.105 25.664 151.105 26.144C151.105 26.6667 151.244 27.072 151.521 27.36C151.798 27.6373 152.156 27.776 152.593 27.776ZM172.717 21.072L168.717 30H165.693L165.309 24.208L162.829 30H159.821L158.973 21.072H161.709L161.837 27.456L164.477 21.072H167.373L167.773 27.456L170.141 21.072H172.717Z" fill="white"/>
<rect x="219" width="200" height="48" rx="24" fill="url(#paint1_linear_400_906)"/>
<path d="M275.059 20.928L274.659 23.264H278.323L277.955 25.328H274.291L273.843 27.84H277.987L277.603 30H270.723L272.707 18.768H279.587L279.203 20.928H275.059ZM279.635 25.52C279.795 24.6027 280.11 23.7973 280.579 23.104C281.048 22.4107 281.614 21.8773 282.275 21.504C282.936 21.1307 283.635 20.944 284.371 20.944C285 20.944 285.528 21.072 285.955 21.328C286.382 21.584 286.691 21.92 286.883 22.336L287.107 21.072H289.843L288.259 30H285.523L285.763 28.736C285.422 29.152 284.99 29.488 284.467 29.744C283.944 30 283.368 30.128 282.739 30.128C282.11 30.128 281.55 29.984 281.059 29.696C280.579 29.408 280.206 29.0027 279.939 28.48C279.672 27.9467 279.539 27.3227 279.539 26.608C279.539 26.2667 279.571 25.904 279.635 25.52ZM286.323 25.536C286.355 25.344 286.371 25.168 286.371 25.008C286.371 24.4853 286.216 24.0747 285.907 23.776C285.608 23.4773 285.224 23.328 284.755 23.328C284.211 23.328 283.715 23.5253 283.267 23.92C282.819 24.304 282.536 24.8373 282.419 25.52C282.387 25.712 282.371 25.888 282.371 26.048C282.371 26.5707 282.52 26.9867 282.819 27.296C283.128 27.5947 283.512 27.744 283.971 27.744C284.515 27.744 285.011 27.5467 285.459 27.152C285.907 26.7573 286.195 26.2187 286.323 25.536ZM294.255 22.688C294.671 22.1547 295.145 21.7387 295.679 21.44C296.223 21.1307 296.788 20.976 297.375 20.976L296.863 23.872H296.111C295.428 23.872 294.889 24.0213 294.495 24.32C294.1 24.608 293.839 25.12 293.711 25.856L292.975 30H290.239L291.807 21.072H294.543L294.255 22.688ZM304.106 20.976C305.002 20.976 305.706 21.2267 306.218 21.728C306.73 22.2293 306.986 22.928 306.986 23.824C306.986 24.1227 306.954 24.4427 306.89 24.784L305.962 30H303.242L304.106 25.152C304.138 24.9707 304.154 24.8107 304.154 24.672C304.154 24.224 304.026 23.8773 303.77 23.632C303.525 23.3867 303.178 23.264 302.73 23.264C302.197 23.264 301.749 23.4293 301.386 23.76C301.024 24.0907 300.789 24.5547 300.682 25.152V25.072L299.818 30H297.082L298.65 21.072H301.386L301.178 22.272C301.53 21.8773 301.957 21.5627 302.458 21.328C302.97 21.0933 303.52 20.976 304.106 20.976ZM312.111 24.368C312.303 23.2587 312.713 22.272 313.343 21.408C313.983 20.5333 314.772 19.856 315.711 19.376C316.649 18.8853 317.663 18.64 318.751 18.64C320.084 18.64 321.161 18.992 321.983 19.696C322.815 20.4 323.284 21.36 323.391 22.576H320.383C320.244 22.1173 319.988 21.7707 319.615 21.536C319.252 21.2907 318.804 21.168 318.271 21.168C317.428 21.168 316.697 21.4613 316.079 22.048C315.46 22.624 315.065 23.3973 314.895 24.368C314.841 24.6667 314.815 24.928 314.815 25.152C314.815 25.8987 315.023 26.4907 315.439 26.928C315.855 27.3653 316.425 27.584 317.151 27.584C317.673 27.584 318.159 27.4613 318.607 27.216C319.065 26.9707 319.449 26.6187 319.759 26.16H322.767C322.233 27.376 321.428 28.336 320.351 29.04C319.273 29.7333 318.068 30.08 316.735 30.08C315.775 30.08 314.937 29.8933 314.223 29.52C313.508 29.1467 312.959 28.6187 312.575 27.936C312.191 27.2533 311.999 26.4587 311.999 25.552C311.999 25.1467 312.036 24.752 312.111 24.368ZM327.834 30.128C327.066 30.128 326.383 29.9733 325.786 29.664C325.189 29.3547 324.725 28.9173 324.394 28.352C324.074 27.7867 323.914 27.1307 323.914 26.384C323.914 25.3707 324.154 24.448 324.634 23.616C325.114 22.784 325.775 22.1333 326.618 21.664C327.461 21.184 328.399 20.944 329.434 20.944C330.202 20.944 330.885 21.104 331.482 21.424C332.09 21.7333 332.559 22.1707 332.89 22.736C333.221 23.3013 333.386 23.9573 333.386 24.704C333.386 25.728 333.141 26.656 332.65 27.488C332.17 28.3093 331.503 28.9547 330.65 29.424C329.807 29.8933 328.869 30.128 327.834 30.128ZM328.218 27.776C328.666 27.776 329.066 27.6427 329.418 27.376C329.781 27.0987 330.058 26.7467 330.25 26.32C330.453 25.8827 330.554 25.4293 330.554 24.96C330.554 24.4267 330.41 24.016 330.122 23.728C329.834 23.44 329.471 23.296 329.034 23.296C328.575 23.296 328.17 23.4347 327.818 23.712C327.477 23.9787 327.21 24.3307 327.018 24.768C326.826 25.2053 326.73 25.664 326.73 26.144C326.73 26.6667 326.869 27.072 327.146 27.36C327.423 27.6373 327.781 27.776 328.218 27.776ZM337.062 20.144C336.635 20.144 336.294 20.032 336.038 19.808C335.792 19.5733 335.67 19.28 335.67 18.928C335.67 18.448 335.856 18.0373 336.23 17.696C336.603 17.3547 337.056 17.184 337.59 17.184C338.016 17.184 338.352 17.3013 338.598 17.536C338.843 17.76 338.966 18.0533 338.966 18.416C338.966 18.8853 338.779 19.2907 338.406 19.632C338.032 19.9733 337.584 20.144 337.062 20.144ZM338.246 21.072L336.678 30H333.942L335.51 21.072H338.246ZM345.684 20.976C346.58 20.976 347.284 21.2267 347.796 21.728C348.308 22.2293 348.564 22.928 348.564 23.824C348.564 24.1227 348.532 24.4427 348.468 24.784L347.54 30H344.82L345.684 25.152C345.716 24.9707 345.732 24.8107 345.732 24.672C345.732 24.224 345.604 23.8773 345.348 23.632C345.103 23.3867 344.756 23.264 344.308 23.264C343.775 23.264 343.327 23.4293 342.964 23.76C342.602 24.0907 342.367 24.5547 342.26 25.152V25.072L341.396 30H338.66L340.228 21.072H342.964L342.756 22.272C343.108 21.8773 343.535 21.5627 344.036 21.328C344.548 21.0933 345.098 20.976 345.684 20.976ZM353.154 30.128C352.45 30.128 351.815 30.016 351.25 29.792C350.695 29.568 350.258 29.2587 349.938 28.864C349.618 28.4587 349.458 27.9947 349.458 27.472C349.458 27.3973 349.468 27.264 349.49 27.072H352.13C352.108 27.4027 352.204 27.6693 352.418 27.872C352.642 28.064 352.956 28.16 353.362 28.16C353.703 28.16 353.986 28.096 354.21 27.968C354.434 27.84 354.546 27.6587 354.546 27.424C354.546 27.2 354.423 27.024 354.178 26.896C353.943 26.7573 353.548 26.592 352.994 26.4C352.418 26.208 351.932 26.0213 351.538 25.84C351.154 25.648 350.823 25.376 350.546 25.024C350.268 24.672 350.13 24.2293 350.13 23.696C350.13 23.1733 350.284 22.704 350.594 22.288C350.903 21.8613 351.335 21.5307 351.89 21.296C352.455 21.0613 353.106 20.944 353.842 20.944C354.578 20.944 355.218 21.0667 355.762 21.312C356.306 21.5467 356.727 21.8773 357.026 22.304C357.324 22.7307 357.474 23.2107 357.474 23.744L357.458 23.984H354.978C354.999 23.664 354.903 23.408 354.69 23.216C354.476 23.024 354.172 22.928 353.778 22.928C353.468 22.928 353.212 22.992 353.01 23.12C352.818 23.248 352.722 23.424 352.722 23.648C352.722 23.8827 352.85 24.08 353.106 24.24C353.372 24.3893 353.783 24.56 354.338 24.752C354.914 24.944 355.388 25.136 355.762 25.328C356.146 25.5093 356.471 25.7707 356.738 26.112C357.015 26.4427 357.154 26.8587 357.154 27.36C357.154 27.936 356.978 28.432 356.626 28.848C356.284 29.264 355.81 29.584 355.202 29.808C354.604 30.0213 353.922 30.128 353.154 30.128ZM364.028 18.368L362.348 26.032H360.028L361.068 18.368H364.028ZM360.508 30.128C360.081 30.128 359.74 30.016 359.484 29.792C359.238 29.5573 359.116 29.264 359.116 28.912C359.116 28.4213 359.297 28.0053 359.66 27.664C360.033 27.3227 360.492 27.152 361.036 27.152C361.452 27.152 361.782 27.2693 362.028 27.504C362.273 27.728 362.396 28.0213 362.396 28.384C362.396 28.864 362.209 29.2747 361.836 29.616C361.473 29.9573 361.03 30.128 360.508 30.128Z" fill="white"/>
<rect x="62" y="65" width="241" height="48" rx="24" fill="url(#paint2_linear_400_906)"/>
<path d="M97.0321 83.768C98.0667 83.768 98.9574 83.9547 99.7041 84.328C100.461 84.6907 101.037 85.208 101.432 85.88C101.837 86.5413 102.04 87.32 102.04 88.216C102.04 88.5253 102.003 88.9147 101.928 89.384C101.736 90.4827 101.32 91.4587 100.68 92.312C100.051 93.1653 99.2454 93.8267 98.2641 94.296C97.2934 94.7653 96.2214 95 95.0481 95H90.8401L92.8241 83.768H97.0321ZM95.2881 92.664C96.3227 92.664 97.1814 92.376 97.8641 91.8C98.5467 91.224 98.9734 90.4187 99.1441 89.384C99.1974 89.064 99.2241 88.7973 99.2241 88.584C99.2241 87.7947 98.9841 87.1867 98.5041 86.76C98.0241 86.3227 97.3414 86.104 96.4561 86.104H95.1441L93.9921 92.664H95.2881ZM105.585 85.144C105.158 85.144 104.817 85.032 104.561 84.808C104.316 84.5733 104.193 84.28 104.193 83.928C104.193 83.448 104.38 83.0373 104.753 82.696C105.126 82.3547 105.58 82.184 106.113 82.184C106.54 82.184 106.876 82.3013 107.121 82.536C107.366 82.76 107.489 83.0533 107.489 83.416C107.489 83.8853 107.302 84.2907 106.929 84.632C106.556 84.9733 106.108 85.144 105.585 85.144ZM106.769 86.072L105.201 95H102.465L104.033 86.072H106.769ZM110.896 95.128C110.192 95.128 109.557 95.016 108.992 94.792C108.437 94.568 108 94.2587 107.68 93.864C107.36 93.4587 107.2 92.9947 107.2 92.472C107.2 92.3973 107.21 92.264 107.232 92.072H109.872C109.85 92.4027 109.946 92.6693 110.16 92.872C110.384 93.064 110.698 93.16 111.104 93.16C111.445 93.16 111.728 93.096 111.952 92.968C112.176 92.84 112.288 92.6587 112.288 92.424C112.288 92.2 112.165 92.024 111.92 91.896C111.685 91.7573 111.29 91.592 110.736 91.4C110.16 91.208 109.674 91.0213 109.28 90.84C108.896 90.648 108.565 90.376 108.288 90.024C108.01 89.672 107.872 89.2293 107.872 88.696C107.872 88.1733 108.026 87.704 108.336 87.288C108.645 86.8613 109.077 86.5307 109.632 86.296C110.197 86.0613 110.848 85.944 111.584 85.944C112.32 85.944 112.96 86.0667 113.504 86.312C114.048 86.5467 114.469 86.8773 114.768 87.304C115.066 87.7307 115.216 88.2107 115.216 88.744L115.2 88.984H112.72C112.741 88.664 112.645 88.408 112.432 88.216C112.218 88.024 111.914 87.928 111.52 87.928C111.21 87.928 110.954 87.992 110.752 88.12C110.56 88.248 110.464 88.424 110.464 88.648C110.464 88.8827 110.592 89.08 110.848 89.24C111.114 89.3893 111.525 89.56 112.08 89.752C112.656 89.944 113.13 90.136 113.504 90.328C113.888 90.5093 114.213 90.7707 114.48 91.112C114.757 91.4427 114.896 91.8587 114.896 92.36C114.896 92.936 114.72 93.432 114.368 93.848C114.026 94.264 113.552 94.584 112.944 94.808C112.346 95.0213 111.664 95.128 110.896 95.128ZM116.362 90.536C116.522 89.608 116.852 88.7973 117.354 88.104C117.855 87.4107 118.474 86.8773 119.21 86.504C119.956 86.1307 120.767 85.944 121.642 85.944C122.762 85.944 123.647 86.2373 124.298 86.824C124.948 87.4107 125.295 88.2373 125.338 89.304H122.426C122.308 88.6213 121.892 88.28 121.178 88.28C120.676 88.28 120.244 88.4773 119.882 88.872C119.519 89.256 119.274 89.8107 119.146 90.536C119.103 90.76 119.082 90.9947 119.082 91.24C119.082 91.7413 119.199 92.1253 119.434 92.392C119.668 92.6587 119.988 92.792 120.394 92.792C121.098 92.792 121.626 92.4507 121.978 91.768H124.906C124.49 92.8133 123.85 93.6347 122.986 94.232C122.122 94.8293 121.135 95.128 120.026 95.128C118.874 95.128 117.956 94.8133 117.274 94.184C116.602 93.544 116.266 92.6747 116.266 91.576C116.266 91.2453 116.298 90.8987 116.362 90.536ZM129.873 95.128C129.105 95.128 128.423 94.9733 127.825 94.664C127.228 94.3547 126.764 93.9173 126.433 93.352C126.113 92.7867 125.953 92.1307 125.953 91.384C125.953 90.3707 126.193 89.448 126.673 88.616C127.153 87.784 127.815 87.1333 128.657 86.664C129.5 86.184 130.439 85.944 131.473 85.944C132.241 85.944 132.924 86.104 133.521 86.424C134.129 86.7333 134.599 87.1707 134.929 87.736C135.26 88.3013 135.425 88.9573 135.425 89.704C135.425 90.728 135.18 91.656 134.689 92.488C134.209 93.3093 133.543 93.9547 132.689 94.424C131.847 94.8933 130.908 95.128 129.873 95.128ZM130.257 92.776C130.705 92.776 131.105 92.6427 131.457 92.376C131.82 92.0987 132.097 91.7467 132.289 91.32C132.492 90.8827 132.593 90.4293 132.593 89.96C132.593 89.4267 132.449 89.016 132.161 88.728C131.873 88.44 131.511 88.296 131.073 88.296C130.615 88.296 130.209 88.4347 129.857 88.712C129.516 88.9787 129.249 89.3307 129.057 89.768C128.865 90.2053 128.769 90.664 128.769 91.144C128.769 91.6667 128.908 92.072 129.185 92.36C129.463 92.6373 129.82 92.776 130.257 92.776ZM140.445 92.44L143.517 86.072H146.445L141.693 95H138.301L136.717 86.072H139.629L140.445 92.44ZM151.564 85.944C152.716 85.944 153.628 86.2587 154.3 86.888C154.983 87.5067 155.324 88.3547 155.324 89.432C155.324 89.784 155.298 90.0987 155.244 90.376C155.202 90.6213 155.138 90.8827 155.052 91.16H148.86C148.85 91.224 148.844 91.3253 148.844 91.464C148.844 91.9333 148.972 92.2907 149.228 92.536C149.484 92.7813 149.826 92.904 150.252 92.904C150.935 92.904 151.458 92.616 151.82 92.04H154.732C154.348 92.9467 153.724 93.688 152.86 94.264C151.996 94.84 151.026 95.128 149.948 95.128C148.796 95.128 147.874 94.808 147.18 94.168C146.498 93.528 146.156 92.6587 146.156 91.56C146.156 91.2293 146.188 90.888 146.252 90.536C146.412 89.608 146.743 88.7973 147.244 88.104C147.746 87.4107 148.37 86.8773 149.116 86.504C149.863 86.1307 150.679 85.944 151.564 85.944ZM152.556 89.768C152.578 89.6187 152.588 89.5173 152.588 89.464C152.588 89.0373 152.455 88.712 152.188 88.488C151.922 88.2533 151.57 88.136 151.132 88.136C150.663 88.136 150.247 88.28 149.884 88.568C149.532 88.8453 149.276 89.2453 149.116 89.768H152.556ZM159.872 87.688C160.288 87.1547 160.762 86.7387 161.296 86.44C161.84 86.1307 162.405 85.976 162.992 85.976L162.48 88.872H161.728C161.045 88.872 160.506 89.0213 160.112 89.32C159.717 89.608 159.456 90.12 159.328 90.856L158.592 95H155.856L157.424 86.072H160.16L159.872 87.688ZM171.747 95.112C170.797 95.112 169.96 94.9147 169.235 94.52C168.52 94.1253 167.965 93.5707 167.571 92.856C167.176 92.1413 166.979 91.32 166.979 90.392C166.979 89.08 167.261 87.912 167.827 86.888C168.392 85.8533 169.176 85.048 170.179 84.472C171.192 83.896 172.339 83.608 173.619 83.608C174.579 83.608 175.421 83.8053 176.147 84.2C176.872 84.584 177.432 85.1333 177.827 85.848C178.221 86.552 178.419 87.3627 178.419 88.28C178.419 89.592 178.136 90.7707 177.571 91.816C177.005 92.8507 176.216 93.6613 175.203 94.248C174.189 94.824 173.037 95.112 171.747 95.112ZM172.163 92.584C172.867 92.584 173.485 92.4027 174.019 92.04C174.552 91.6773 174.963 91.192 175.251 90.584C175.549 89.9653 175.699 89.2987 175.699 88.584C175.699 87.816 175.485 87.2133 175.059 86.776C174.632 86.3387 174.035 86.12 173.267 86.12C172.563 86.12 171.939 86.3013 171.395 86.664C170.861 87.0267 170.445 87.512 170.147 88.12C169.859 88.7173 169.715 89.3787 169.715 90.104C169.715 90.872 169.928 91.48 170.355 91.928C170.781 92.3653 171.384 92.584 172.163 92.584ZM183.061 87.336C183.402 86.92 183.829 86.584 184.341 86.328C184.863 86.072 185.439 85.944 186.069 85.944C187.029 85.944 187.802 86.2587 188.389 86.888C188.986 87.5173 189.285 88.3707 189.285 89.448C189.285 89.7787 189.253 90.136 189.189 90.52C189.029 91.4373 188.714 92.248 188.245 92.952C187.775 93.6453 187.21 94.184 186.549 94.568C185.887 94.9413 185.189 95.128 184.453 95.128C183.834 95.128 183.311 95 182.885 94.744C182.458 94.488 182.143 94.1573 181.941 93.752L180.965 99.256H178.229L180.549 86.072H183.285L183.061 87.336ZM186.421 90.52C186.453 90.3387 186.469 90.1733 186.469 90.024C186.469 89.4907 186.314 89.0747 186.005 88.776C185.706 88.4773 185.322 88.328 184.853 88.328C184.309 88.328 183.813 88.5253 183.365 88.92C182.917 89.3147 182.629 89.8533 182.501 90.536C182.469 90.728 182.453 90.904 182.453 91.064C182.453 91.5867 182.602 91.9973 182.901 92.296C183.199 92.5947 183.583 92.744 184.053 92.744C184.597 92.744 185.093 92.5467 185.541 92.152C185.999 91.7467 186.293 91.2027 186.421 90.52ZM193.92 87.336C194.261 86.92 194.688 86.584 195.2 86.328C195.723 86.072 196.299 85.944 196.928 85.944C197.888 85.944 198.661 86.2587 199.248 86.888C199.845 87.5173 200.144 88.3707 200.144 89.448C200.144 89.7787 200.112 90.136 200.048 90.52C199.888 91.4373 199.573 92.248 199.104 92.952C198.635 93.6453 198.069 94.184 197.408 94.568C196.747 94.9413 196.048 95.128 195.312 95.128C194.693 95.128 194.171 95 193.744 94.744C193.317 94.488 193.003 94.1573 192.8 93.752L191.824 99.256H189.088L191.408 86.072H194.144L193.92 87.336ZM197.28 90.52C197.312 90.3387 197.328 90.1733 197.328 90.024C197.328 89.4907 197.173 89.0747 196.864 88.776C196.565 88.4773 196.181 88.328 195.712 88.328C195.168 88.328 194.672 88.5253 194.224 88.92C193.776 89.3147 193.488 89.8533 193.36 90.536C193.328 90.728 193.312 90.904 193.312 91.064C193.312 91.5867 193.461 91.9973 193.76 92.296C194.059 92.5947 194.443 92.744 194.912 92.744C195.456 92.744 195.952 92.5467 196.4 92.152C196.859 91.7467 197.152 91.2027 197.28 90.52ZM204.779 95.128C204.011 95.128 203.329 94.9733 202.731 94.664C202.134 94.3547 201.67 93.9173 201.339 93.352C201.019 92.7867 200.859 92.1307 200.859 91.384C200.859 90.3707 201.099 89.448 201.579 88.616C202.059 87.784 202.721 87.1333 203.563 86.664C204.406 86.184 205.345 85.944 206.379 85.944C207.147 85.944 207.83 86.104 208.427 86.424C209.035 86.7333 209.505 87.1707 209.835 87.736C210.166 88.3013 210.331 88.9573 210.331 89.704C210.331 90.728 210.086 91.656 209.595 92.488C209.115 93.3093 208.449 93.9547 207.595 94.424C206.753 94.8933 205.814 95.128 204.779 95.128ZM205.163 92.776C205.611 92.776 206.011 92.6427 206.363 92.376C206.726 92.0987 207.003 91.7467 207.195 91.32C207.398 90.8827 207.499 90.4293 207.499 89.96C207.499 89.4267 207.355 89.016 207.067 88.728C206.779 88.44 206.417 88.296 205.979 88.296C205.521 88.296 205.115 88.4347 204.763 88.712C204.422 88.9787 204.155 89.3307 203.963 89.768C203.771 90.2053 203.675 90.664 203.675 91.144C203.675 91.6667 203.814 92.072 204.091 92.36C204.369 92.6373 204.726 92.776 205.163 92.776ZM214.903 87.688C215.319 87.1547 215.794 86.7387 216.327 86.44C216.871 86.1307 217.436 85.976 218.023 85.976L217.511 88.872H216.759C216.076 88.872 215.538 89.0213 215.143 89.32C214.748 89.608 214.487 90.12 214.359 90.856L213.623 95H210.887L212.455 86.072H215.191L214.903 87.688ZM221.443 91.928C221.432 91.9813 221.427 92.0507 221.427 92.136C221.427 92.328 221.48 92.4667 221.587 92.552C221.704 92.6373 221.891 92.68 222.147 92.68H223.123L222.707 95H221.315C219.523 95 218.627 94.248 218.627 92.744C218.627 92.52 218.653 92.2373 218.707 91.896L219.347 88.344H218.259L218.659 86.072H219.747L220.131 83.896H222.867L222.483 86.072H224.275L223.875 88.344H222.083L221.443 91.928ZM234.615 86.072L233.047 95H230.311L230.519 93.784C230.167 94.1787 229.735 94.4987 229.223 94.744C228.721 94.9787 228.183 95.096 227.607 95.096C226.711 95.096 226.007 94.8453 225.495 94.344C224.983 93.832 224.727 93.1227 224.727 92.216C224.727 91.8747 224.753 91.5653 224.807 91.288L225.735 86.072H228.455L227.607 90.92C227.575 91.0907 227.559 91.256 227.559 91.416C227.559 91.864 227.681 92.2107 227.927 92.456C228.183 92.6907 228.535 92.808 228.983 92.808C229.495 92.808 229.927 92.6587 230.279 92.36C230.641 92.0507 230.881 91.6133 230.999 91.048L231.879 86.072H234.615ZM242.036 85.976C242.932 85.976 243.636 86.2267 244.148 86.728C244.66 87.2293 244.916 87.928 244.916 88.824C244.916 89.1227 244.884 89.4427 244.82 89.784L243.892 95H241.172L242.036 90.152C242.068 89.9707 242.084 89.8107 242.084 89.672C242.084 89.224 241.956 88.8773 241.7 88.632C241.455 88.3867 241.108 88.264 240.66 88.264C240.127 88.264 239.679 88.4293 239.316 88.76C238.953 89.0907 238.719 89.5547 238.612 90.152V90.072L237.748 95H235.012L236.58 86.072H239.316L239.108 87.272C239.46 86.8773 239.887 86.5627 240.388 86.328C240.9 86.0933 241.449 85.976 242.036 85.976ZM248.913 85.144C248.487 85.144 248.145 85.032 247.889 84.808C247.644 84.5733 247.521 84.28 247.521 83.928C247.521 83.448 247.708 83.0373 248.081 82.696C248.455 82.3547 248.908 82.184 249.441 82.184C249.868 82.184 250.204 82.3013 250.449 82.536C250.695 82.76 250.817 83.0533 250.817 83.416C250.817 83.8853 250.631 84.2907 250.257 84.632C249.884 84.9733 249.436 85.144 248.913 85.144ZM250.097 86.072L248.529 95H245.793L247.361 86.072H250.097ZM254.224 91.928C254.213 91.9813 254.208 92.0507 254.208 92.136C254.208 92.328 254.261 92.4667 254.368 92.552C254.485 92.6373 254.672 92.68 254.928 92.68H255.904L255.488 95H254.096C252.304 95 251.408 94.248 251.408 92.744C251.408 92.52 251.435 92.2373 251.488 91.896L252.128 88.344H251.04L251.44 86.072H252.528L252.912 83.896H255.648L255.264 86.072H257.056L256.656 88.344H254.864L254.224 91.928ZM260.132 85.144C259.705 85.144 259.364 85.032 259.108 84.808C258.863 84.5733 258.74 84.28 258.74 83.928C258.74 83.448 258.927 83.0373 259.3 82.696C259.673 82.3547 260.127 82.184 260.66 82.184C261.087 82.184 261.423 82.3013 261.668 82.536C261.913 82.76 262.036 83.0533 262.036 83.416C262.036 83.8853 261.849 84.2907 261.476 84.632C261.103 84.9733 260.655 85.144 260.132 85.144ZM261.316 86.072L259.748 95H257.012L258.58 86.072H261.316ZM267.299 85.944C268.451 85.944 269.363 86.2587 270.035 86.888C270.717 87.5067 271.059 88.3547 271.059 89.432C271.059 89.784 271.032 90.0987 270.979 90.376C270.936 90.6213 270.872 90.8827 270.787 91.16H264.595C264.584 91.224 264.579 91.3253 264.579 91.464C264.579 91.9333 264.707 92.2907 264.963 92.536C265.219 92.7813 265.56 92.904 265.987 92.904C266.669 92.904 267.192 92.616 267.555 92.04H270.467C270.083 92.9467 269.459 93.688 268.595 94.264C267.731 94.84 266.76 95.128 265.683 95.128C264.531 95.128 263.608 94.808 262.915 94.168C262.232 93.528 261.891 92.6587 261.891 91.56C261.891 91.2293 261.923 90.888 261.987 90.536C262.147 89.608 262.477 88.7973 262.979 88.104C263.48 87.4107 264.104 86.8773 264.851 86.504C265.597 86.1307 266.413 85.944 267.299 85.944ZM268.291 89.768C268.312 89.6187 268.323 89.5173 268.323 89.464C268.323 89.0373 268.189 88.712 267.923 88.488C267.656 88.2533 267.304 88.136 266.867 88.136C266.397 88.136 265.981 88.28 265.619 88.568C265.267 88.8453 265.011 89.2453 264.851 89.768H268.291ZM275.302 95.128C274.598 95.128 273.963 95.016 273.398 94.792C272.843 94.568 272.406 94.2587 272.086 93.864C271.766 93.4587 271.606 92.9947 271.606 92.472C271.606 92.3973 271.617 92.264 271.638 92.072H274.278C274.257 92.4027 274.353 92.6693 274.566 92.872C274.79 93.064 275.105 93.16 275.51 93.16C275.851 93.16 276.134 93.096 276.358 92.968C276.582 92.84 276.694 92.6587 276.694 92.424C276.694 92.2 276.571 92.024 276.326 91.896C276.091 91.7573 275.697 91.592 275.142 91.4C274.566 91.208 274.081 91.0213 273.686 90.84C273.302 90.648 272.971 90.376 272.694 90.024C272.417 89.672 272.278 89.2293 272.278 88.696C272.278 88.1733 272.433 87.704 272.742 87.288C273.051 86.8613 273.483 86.5307 274.038 86.296C274.603 86.0613 275.254 85.944 275.99 85.944C276.726 85.944 277.366 86.0667 277.91 86.312C278.454 86.5467 278.875 86.8773 279.174 87.304C279.473 87.7307 279.622 88.2107 279.622 88.744L279.606 88.984H277.126C277.147 88.664 277.051 88.408 276.838 88.216C276.625 88.024 276.321 87.928 275.926 87.928C275.617 87.928 275.361 87.992 275.158 88.12C274.966 88.248 274.87 88.424 274.87 88.648C274.87 88.8827 274.998 89.08 275.254 89.24C275.521 89.3893 275.931 89.56 276.486 89.752C277.062 89.944 277.537 90.136 277.91 90.328C278.294 90.5093 278.619 90.7707 278.886 91.112C279.163 91.4427 279.302 91.8587 279.302 92.36C279.302 92.936 279.126 93.432 278.774 93.848C278.433 94.264 277.958 94.584 277.35 94.808C276.753 95.0213 276.07 95.128 275.302 95.128Z" fill="white"/>
<rect x="319" y="65" width="251" height="48" rx="24" fill="url(#paint3_linear_400_906)"/>
<path d="M348.098 85.928L347.698 88.264H351.362L350.994 90.328H347.33L346.882 92.84H351.026L350.642 95H343.762L345.746 83.768H352.626L352.242 85.928H348.098ZM359.442 85.976C360.338 85.976 361.042 86.2267 361.554 86.728C362.066 87.2293 362.322 87.928 362.322 88.824C362.322 89.1227 362.29 89.4427 362.226 89.784L361.298 95H358.578L359.442 90.152C359.474 89.9707 359.49 89.8107 359.49 89.672C359.49 89.224 359.362 88.8773 359.106 88.632C358.861 88.3867 358.514 88.264 358.066 88.264C357.533 88.264 357.085 88.4293 356.722 88.76C356.36 89.0907 356.125 89.5547 356.018 90.152V90.072L355.154 95H352.418L353.986 86.072H356.722L356.514 87.272C356.866 86.8773 357.293 86.5627 357.794 86.328C358.306 86.0933 358.856 85.976 359.442 85.976ZM366.303 85.144C365.877 85.144 365.535 85.032 365.279 84.808C365.034 84.5733 364.911 84.28 364.911 83.928C364.911 83.448 365.098 83.0373 365.471 82.696C365.845 82.3547 366.298 82.184 366.831 82.184C367.247 82.184 367.578 82.296 367.823 82.52C368.079 82.744 368.207 83.032 368.207 83.384C368.207 83.864 368.021 84.28 367.647 84.632C367.285 84.9733 366.837 85.144 366.303 85.144ZM365.727 96.152C365.375 98.2213 364.143 99.256 362.031 99.256H360.959L361.375 96.936H362.031C362.33 96.936 362.554 96.8773 362.703 96.76C362.842 96.6427 362.938 96.4507 362.991 96.184L364.767 86.072H367.503L365.727 96.152ZM371.983 95.128C371.215 95.128 370.532 94.9733 369.935 94.664C369.337 94.3547 368.873 93.9173 368.543 93.352C368.223 92.7867 368.063 92.1307 368.063 91.384C368.063 90.3707 368.303 89.448 368.783 88.616C369.263 87.784 369.924 87.1333 370.767 86.664C371.609 86.184 372.548 85.944 373.583 85.944C374.351 85.944 375.033 86.104 375.631 86.424C376.239 86.7333 376.708 87.1707 377.039 87.736C377.369 88.3013 377.535 88.9573 377.535 89.704C377.535 90.728 377.289 91.656 376.799 92.488C376.319 93.3093 375.652 93.9547 374.799 94.424C373.956 94.8933 373.017 95.128 371.983 95.128ZM372.367 92.776C372.815 92.776 373.215 92.6427 373.567 92.376C373.929 92.0987 374.207 91.7467 374.399 91.32C374.601 90.8827 374.703 90.4293 374.703 89.96C374.703 89.4267 374.559 89.016 374.271 88.728C373.983 88.44 373.62 88.296 373.183 88.296C372.724 88.296 372.319 88.4347 371.967 88.712C371.625 88.9787 371.359 89.3307 371.167 89.768C370.975 90.2053 370.879 90.664 370.879 91.144C370.879 91.6667 371.017 92.072 371.295 92.36C371.572 92.6373 371.929 92.776 372.367 92.776ZM381.706 86.072L382.794 91.656L385.834 86.072H388.794L380.874 99.24H377.93L380.778 94.696L378.666 86.072H381.706ZM396.239 85.928L395.839 88.264H399.503L399.135 90.328H395.471L395.023 92.84H399.167L398.783 95H391.903L393.887 83.768H400.767L400.383 85.928H396.239ZM406.623 90.584L408.911 95H405.839L404.559 92.536L402.687 95H399.727L403.471 90.44L401.215 86.072H404.287L405.567 88.552L407.439 86.072H410.399L406.623 90.584ZM410.221 90.536C410.381 89.608 410.712 88.7973 411.213 88.104C411.714 87.4107 412.333 86.8773 413.069 86.504C413.816 86.1307 414.626 85.944 415.501 85.944C416.621 85.944 417.506 86.2373 418.157 86.824C418.808 87.4107 419.154 88.2373 419.197 89.304H416.285C416.168 88.6213 415.752 88.28 415.037 88.28C414.536 88.28 414.104 88.4773 413.741 88.872C413.378 89.256 413.133 89.8107 413.005 90.536C412.962 90.76 412.941 90.9947 412.941 91.24C412.941 91.7413 413.058 92.1253 413.293 92.392C413.528 92.6587 413.848 92.792 414.253 92.792C414.957 92.792 415.485 92.4507 415.837 91.768H418.765C418.349 92.8133 417.709 93.6347 416.845 94.232C415.981 94.8293 414.994 95.128 413.885 95.128C412.733 95.128 411.816 94.8133 411.133 94.184C410.461 93.544 410.125 92.6747 410.125 91.576C410.125 91.2453 410.157 90.8987 410.221 90.536ZM424.485 83.16L422.389 95H419.653L421.749 83.16H424.485ZM434.755 86.072L433.187 95H430.451L430.659 93.784C430.307 94.1787 429.875 94.4987 429.363 94.744C428.862 94.9787 428.323 95.096 427.747 95.096C426.851 95.096 426.147 94.8453 425.635 94.344C425.123 93.832 424.867 93.1227 424.867 92.216C424.867 91.8747 424.894 91.5653 424.947 91.288L425.875 86.072H428.595L427.747 90.92C427.715 91.0907 427.699 91.256 427.699 91.416C427.699 91.864 427.822 92.2107 428.067 92.456C428.323 92.6907 428.675 92.808 429.123 92.808C429.635 92.808 430.067 92.6587 430.419 92.36C430.782 92.0507 431.022 91.6133 431.139 91.048L432.019 86.072H434.755ZM438.865 95.128C438.161 95.128 437.526 95.016 436.961 94.792C436.406 94.568 435.969 94.2587 435.649 93.864C435.329 93.4587 435.169 92.9947 435.169 92.472C435.169 92.3973 435.179 92.264 435.201 92.072H437.841C437.819 92.4027 437.915 92.6693 438.129 92.872C438.353 93.064 438.667 93.16 439.073 93.16C439.414 93.16 439.697 93.096 439.921 92.968C440.145 92.84 440.257 92.6587 440.257 92.424C440.257 92.2 440.134 92.024 439.889 91.896C439.654 91.7573 439.259 91.592 438.705 91.4C438.129 91.208 437.643 91.0213 437.249 90.84C436.865 90.648 436.534 90.376 436.257 90.024C435.979 89.672 435.841 89.2293 435.841 88.696C435.841 88.1733 435.995 87.704 436.305 87.288C436.614 86.8613 437.046 86.5307 437.601 86.296C438.166 86.0613 438.817 85.944 439.553 85.944C440.289 85.944 440.929 86.0667 441.473 86.312C442.017 86.5467 442.438 86.8773 442.737 87.304C443.035 87.7307 443.185 88.2107 443.185 88.744L443.169 88.984H440.689C440.71 88.664 440.614 88.408 440.401 88.216C440.187 88.024 439.883 87.928 439.489 87.928C439.179 87.928 438.923 87.992 438.721 88.12C438.529 88.248 438.433 88.424 438.433 88.648C438.433 88.8827 438.561 89.08 438.817 89.24C439.083 89.3893 439.494 89.56 440.049 89.752C440.625 89.944 441.099 90.136 441.473 90.328C441.857 90.5093 442.182 90.7707 442.449 91.112C442.726 91.4427 442.865 91.8587 442.865 92.36C442.865 92.936 442.689 93.432 442.337 93.848C441.995 94.264 441.521 94.584 440.913 94.808C440.315 95.0213 439.633 95.128 438.865 95.128ZM447.194 85.144C446.768 85.144 446.426 85.032 446.17 84.808C445.925 84.5733 445.802 84.28 445.802 83.928C445.802 83.448 445.989 83.0373 446.362 82.696C446.736 82.3547 447.189 82.184 447.722 82.184C448.149 82.184 448.485 82.3013 448.73 82.536C448.976 82.76 449.098 83.0533 449.098 83.416C449.098 83.8853 448.912 84.2907 448.538 84.632C448.165 84.9733 447.717 85.144 447.194 85.144ZM448.378 86.072L446.81 95H444.074L445.642 86.072H448.378ZM453.257 92.44L456.329 86.072H459.257L454.505 95H451.113L449.529 86.072H452.441L453.257 92.44ZM464.377 85.944C465.529 85.944 466.441 86.2587 467.113 86.888C467.795 87.5067 468.137 88.3547 468.137 89.432C468.137 89.784 468.11 90.0987 468.057 90.376C468.014 90.6213 467.95 90.8827 467.865 91.16H461.673C461.662 91.224 461.657 91.3253 461.657 91.464C461.657 91.9333 461.785 92.2907 462.041 92.536C462.297 92.7813 462.638 92.904 463.065 92.904C463.747 92.904 464.27 92.616 464.633 92.04H467.545C467.161 92.9467 466.537 93.688 465.673 94.264C464.809 94.84 463.838 95.128 462.761 95.128C461.609 95.128 460.686 94.808 459.993 94.168C459.31 93.528 458.969 92.6587 458.969 91.56C458.969 91.2293 459.001 90.888 459.065 90.536C459.225 89.608 459.555 88.7973 460.057 88.104C460.558 87.4107 461.182 86.8773 461.929 86.504C462.675 86.1307 463.491 85.944 464.377 85.944ZM465.369 89.768C465.39 89.6187 465.401 89.5173 465.401 89.464C465.401 89.0373 465.267 88.712 465.001 88.488C464.734 88.2533 464.382 88.136 463.945 88.136C463.475 88.136 463.059 88.28 462.697 88.568C462.345 88.8453 462.089 89.2453 461.929 89.768H465.369ZM482.547 86.68C482.43 87.3413 482.158 87.8907 481.731 88.328C481.305 88.7653 480.793 89.0693 480.195 89.24C480.729 89.3573 481.15 89.6187 481.459 90.024C481.769 90.4293 481.923 90.904 481.923 91.448C481.923 91.6187 481.907 91.784 481.875 91.944C481.715 92.8827 481.257 93.6293 480.499 94.184C479.742 94.728 478.777 95 477.603 95H472.371L474.355 83.768H479.411C480.425 83.768 481.209 83.976 481.763 84.392C482.318 84.808 482.595 85.384 482.595 86.12C482.595 86.3013 482.579 86.488 482.547 86.68ZM478.067 88.328C478.526 88.328 478.894 88.2267 479.171 88.024C479.449 87.8213 479.619 87.528 479.683 87.144C479.694 87.08 479.699 86.9947 479.699 86.888C479.699 86.5787 479.598 86.344 479.395 86.184C479.193 86.0133 478.894 85.928 478.499 85.928H476.707L476.291 88.328H478.067ZM479.155 91.576C479.177 91.448 479.187 91.352 479.187 91.288C479.187 90.9787 479.075 90.7387 478.851 90.568C478.627 90.3867 478.318 90.296 477.923 90.296H475.939L475.491 92.824H477.507C477.977 92.824 478.35 92.7173 478.627 92.504C478.905 92.2907 479.081 91.9813 479.155 91.576ZM488.486 85.944C489.638 85.944 490.55 86.2587 491.222 86.888C491.905 87.5067 492.246 88.3547 492.246 89.432C492.246 89.784 492.22 90.0987 492.166 90.376C492.124 90.6213 492.06 90.8827 491.974 91.16H485.782C485.772 91.224 485.766 91.3253 485.766 91.464C485.766 91.9333 485.894 92.2907 486.15 92.536C486.406 92.7813 486.748 92.904 487.174 92.904C487.857 92.904 488.38 92.616 488.742 92.04H491.654C491.27 92.9467 490.646 93.688 489.782 94.264C488.918 94.84 487.948 95.128 486.87 95.128C485.718 95.128 484.796 94.808 484.102 94.168C483.42 93.528 483.078 92.6587 483.078 91.56C483.078 91.2293 483.11 90.888 483.174 90.536C483.334 89.608 483.665 88.7973 484.166 88.104C484.668 87.4107 485.292 86.8773 486.038 86.504C486.785 86.1307 487.601 85.944 488.486 85.944ZM489.478 89.768C489.5 89.6187 489.51 89.5173 489.51 89.464C489.51 89.0373 489.377 88.712 489.11 88.488C488.844 88.2533 488.492 88.136 488.054 88.136C487.585 88.136 487.169 88.28 486.806 88.568C486.454 88.8453 486.198 89.2453 486.038 89.768H489.478ZM499.802 85.976C500.698 85.976 501.402 86.2267 501.914 86.728C502.426 87.2293 502.682 87.928 502.682 88.824C502.682 89.1227 502.65 89.4427 502.586 89.784L501.658 95H498.938L499.802 90.152C499.834 89.9707 499.85 89.8107 499.85 89.672C499.85 89.224 499.722 88.8773 499.466 88.632C499.22 88.3867 498.874 88.264 498.426 88.264C497.892 88.264 497.444 88.4293 497.082 88.76C496.719 89.0907 496.484 89.5547 496.378 90.152V90.072L495.514 95H492.778L494.346 86.072H497.082L496.874 87.272C497.226 86.8773 497.652 86.5627 498.154 86.328C498.666 86.0933 499.215 85.976 499.802 85.976ZM509.127 85.944C510.279 85.944 511.191 86.2587 511.863 86.888C512.545 87.5067 512.887 88.3547 512.887 89.432C512.887 89.784 512.86 90.0987 512.807 90.376C512.764 90.6213 512.7 90.8827 512.615 91.16H506.423C506.412 91.224 506.407 91.3253 506.407 91.464C506.407 91.9333 506.535 92.2907 506.791 92.536C507.047 92.7813 507.388 92.904 507.815 92.904C508.497 92.904 509.02 92.616 509.383 92.04H512.295C511.911 92.9467 511.287 93.688 510.423 94.264C509.559 94.84 508.588 95.128 507.511 95.128C506.359 95.128 505.436 94.808 504.743 94.168C504.06 93.528 503.719 92.6587 503.719 91.56C503.719 91.2293 503.751 90.888 503.815 90.536C503.975 89.608 504.305 88.7973 504.807 88.104C505.308 87.4107 505.932 86.8773 506.679 86.504C507.425 86.1307 508.241 85.944 509.127 85.944ZM510.119 89.768C510.14 89.6187 510.151 89.5173 510.151 89.464C510.151 89.0373 510.017 88.712 509.751 88.488C509.484 88.2533 509.132 88.136 508.695 88.136C508.225 88.136 507.809 88.28 507.447 88.568C507.095 88.8453 506.839 89.2453 506.679 89.768H510.119ZM519.658 84.792C519.136 84.76 518.752 84.8347 518.506 85.016C518.272 85.1973 518.112 85.5227 518.026 85.992L518.01 86.072H519.482L519.082 88.344H517.61L516.442 95H513.69L514.858 88.344H513.866L514.266 86.072H515.258L515.306 85.816C515.509 84.7173 515.973 83.8853 516.698 83.32C517.434 82.744 518.41 82.456 519.626 82.456C519.818 82.456 519.962 82.4613 520.058 82.472L519.658 84.792ZM522.304 85.144C521.877 85.144 521.536 85.032 521.28 84.808C521.034 84.5733 520.912 84.28 520.912 83.928C520.912 83.448 521.098 83.0373 521.472 82.696C521.845 82.3547 522.298 82.184 522.832 82.184C523.258 82.184 523.594 82.3013 523.84 82.536C524.085 82.76 524.208 83.0533 524.208 83.416C524.208 83.8853 524.021 84.2907 523.648 84.632C523.274 84.9733 522.826 85.144 522.304 85.144ZM523.488 86.072L521.92 95H519.184L520.752 86.072H523.488ZM527.615 91.928C527.604 91.9813 527.599 92.0507 527.599 92.136C527.599 92.328 527.652 92.4667 527.759 92.552C527.876 92.6373 528.063 92.68 528.319 92.68H529.295L528.879 95H527.487C525.695 95 524.799 94.248 524.799 92.744C524.799 92.52 524.825 92.2373 524.879 91.896L525.519 88.344H524.431L524.831 86.072H525.919L526.303 83.896H529.039L528.655 86.072H530.447L530.047 88.344H528.255L527.615 91.928ZM534.115 95.128C533.411 95.128 532.776 95.016 532.211 94.792C531.656 94.568 531.219 94.2587 530.899 93.864C530.579 93.4587 530.419 92.9947 530.419 92.472C530.419 92.3973 530.429 92.264 530.451 92.072H533.091C533.069 92.4027 533.165 92.6693 533.379 92.872C533.603 93.064 533.917 93.16 534.323 93.16C534.664 93.16 534.947 93.096 535.171 92.968C535.395 92.84 535.507 92.6587 535.507 92.424C535.507 92.2 535.384 92.024 535.139 91.896C534.904 91.7573 534.509 91.592 533.955 91.4C533.379 91.208 532.893 91.0213 532.499 90.84C532.115 90.648 531.784 90.376 531.507 90.024C531.229 89.672 531.091 89.2293 531.091 88.696C531.091 88.1733 531.245 87.704 531.555 87.288C531.864 86.8613 532.296 86.5307 532.851 86.296C533.416 86.0613 534.067 85.944 534.803 85.944C535.539 85.944 536.179 86.0667 536.723 86.312C537.267 86.5467 537.688 86.8773 537.987 87.304C538.285 87.7307 538.435 88.2107 538.435 88.744L538.419 88.984H535.939C535.96 88.664 535.864 88.408 535.651 88.216C535.437 88.024 535.133 87.928 534.739 87.928C534.429 87.928 534.173 87.992 533.971 88.12C533.779 88.248 533.683 88.424 533.683 88.648C533.683 88.8827 533.811 89.08 534.067 89.24C534.333 89.3893 534.744 89.56 535.299 89.752C535.875 89.944 536.349 90.136 536.723 90.328C537.107 90.5093 537.432 90.7707 537.699 91.112C537.976 91.4427 538.115 91.8587 538.115 92.36C538.115 92.936 537.939 93.432 537.587 93.848C537.245 94.264 536.771 94.584 536.163 94.808C535.565 95.0213 534.883 95.128 534.115 95.128ZM544.988 83.368L543.308 91.032H540.988L542.028 83.368H544.988ZM541.468 95.128C541.042 95.128 540.7 95.016 540.444 94.792C540.199 94.5573 540.076 94.264 540.076 93.912C540.076 93.4213 540.258 93.0053 540.62 92.664C540.994 92.3227 541.452 92.152 541.996 92.152C542.412 92.152 542.743 92.2693 542.988 92.504C543.234 92.728 543.356 93.0213 543.356 93.384C543.356 93.864 543.17 94.2747 542.796 94.616C542.434 94.9573 541.991 95.128 541.468 95.128Z" fill="white"/>
<defs>
<linearGradient id="paint0_linear_400_906" x1="0" y1="24" x2="200" y2="24" gradientUnits="userSpaceOnUse">
<stop stop-color="#18A0FB"/>
<stop offset="1" stop-color="#3F2D3B"/>
</linearGradient>
<linearGradient id="paint1_linear_400_906" x1="219" y1="24" x2="419" y2="24" gradientUnits="userSpaceOnUse">
<stop stop-color="#1D915C"/>
<stop offset="1" stop-color="#1877F2"/>
</linearGradient>
<linearGradient id="paint2_linear_400_906" x1="62" y1="89" x2="303" y2="89" gradientUnits="userSpaceOnUse">
<stop stop-color="#E25840"/>
<stop offset="1" stop-color="#293C4B"/>
</linearGradient>
<linearGradient id="paint3_linear_400_906" x1="349" y1="89" x2="542.5" y2="89" gradientUnits="userSpaceOnUse">
<stop stop-color="#189FF9"/>
<stop offset="1" stop-color="#1D915C"/>
</linearGradient>
</defs>
</svg>
