<svg width="139" height="34" viewBox="0 0 139 34" fill="none" xmlns="http://www.w3.org/2000/svg">
<path d="M7.22917 13.5467L0 16.4422L2.9952 8.20828L16.3891 13.408L9.14839 33.3128L7.22917 13.5467Z" fill="#67C18C"/>
<path d="M23.19 19.7462L9.1449 33.3142L16.3856 13.4094L29.7798 18.6098L26.7846 26.8437L23.19 19.7462Z" fill="#1D915C"/>
<path d="M16.3934 13.3925L16.3878 13.4078L2.99786 8.20962L3.0001 8.20348L21.2642 0.00262451L16.3934 13.3925Z" fill="#48785D"/>
<path d="M29.768 18.6002L16.3865 13.4053L16.3955 13.3807L21.2629 0L29.768 18.6002Z" fill="#485950"/>
<path d="M44.8431 25.4577V12.167H37.8531V9.1556H54.9713V12.167H48.0051V25.4577H44.8431Z" fill="#3F2D3B"/>
<path d="M63.5491 25.4577C62.6456 25.4577 61.869 25.1483 61.2191 24.5294C60.5693 23.9105 60.2443 23.1709 60.2443 22.3105V21.0652H63.3827V21.6539C63.3827 22.0765 63.4064 22.318 63.454 22.3784C63.5174 22.4237 63.771 22.4463 64.2148 22.4463H73.3682C73.812 22.4463 74.0577 22.4237 74.1053 22.3784C74.1687 22.318 74.2004 22.0765 74.2004 21.6539V19.5935C74.2004 19.1708 74.1687 18.9369 74.1053 18.8916C74.0577 18.8463 73.812 18.8236 73.3682 18.8236H63.5491C62.6456 18.8236 61.869 18.5142 61.2191 17.8953C60.5693 17.2614 60.2443 16.5142 60.2443 15.6538V12.3028C60.2443 11.4424 60.5693 10.7028 61.2191 10.0839C61.869 9.46503 62.6456 9.1556 63.5491 9.1556H74.0577C74.9612 9.1556 75.7378 9.46503 76.3877 10.0839C77.0375 10.7028 77.3625 11.4424 77.3625 12.3028V13.5481H74.2004V12.9594C74.2004 12.5368 74.1687 12.3028 74.1053 12.2575C74.0577 12.1971 73.812 12.167 73.3682 12.167H64.2148C63.771 12.167 63.5174 12.1971 63.454 12.2575C63.4064 12.3028 63.3827 12.5368 63.3827 12.9594V15.0198C63.3827 15.4425 63.4064 15.6764 63.454 15.7217C63.5174 15.767 63.771 15.7896 64.2148 15.7896H74.0577C74.9612 15.7896 75.7378 16.1066 76.3877 16.7406C77.0375 17.3595 77.3625 18.0991 77.3625 18.9595V22.3105C77.3625 23.1709 77.0375 23.9105 76.3877 24.5294C75.7378 25.1483 74.9612 25.4577 74.0577 25.4577H63.5491Z" fill="#3F2D3B"/>
<path d="M86.7815 25.4577C85.8781 25.4577 85.1014 25.1483 84.4516 24.5294C83.8017 23.9105 83.4768 23.1709 83.4768 22.3105V12.3028C83.4768 11.4424 83.8017 10.7028 84.4516 10.0839C85.1014 9.46503 85.8781 9.1556 86.7815 9.1556H97.2902C98.1936 9.1556 98.9703 9.46503 99.6201 10.0839C100.27 10.7028 100.595 11.4424 100.595 12.3028V22.3105C100.595 23.1709 100.27 23.9105 99.6201 24.5294C98.9703 25.1483 98.1936 25.4577 97.2902 25.4577H86.7815ZM87.4472 22.4463H96.6007C97.0286 22.4463 97.2743 22.4237 97.3377 22.3784C97.4011 22.318 97.4328 22.0765 97.4328 21.6539V12.9594C97.4328 12.5368 97.4011 12.3028 97.3377 12.2575C97.2743 12.1971 97.0286 12.167 96.6007 12.167H87.4472C87.0034 12.167 86.7498 12.1971 86.6864 12.2575C86.6389 12.3028 86.6151 12.5368 86.6151 12.9594V21.6539C86.6151 22.0765 86.6389 22.318 86.6864 22.3784C86.7498 22.4237 87.0034 22.4463 87.4472 22.4463Z" fill="#3F2D3B"/>
<path d="M111.72 25.4577L105.491 9.1556H108.819L112.956 19.9105L117.093 9.1556H120.16L124.297 19.9105L128.41 9.1556H131.762L125.533 25.4577H123.061L118.615 13.9104L114.192 25.4577H111.72Z" fill="#3F2D3B"/>
<path d="M136.4 6.82538C134.966 6.82538 133.799 7.93629 133.799 9.30183C133.799 10.6674 134.966 11.7783 136.4 11.7783C137.833 11.7783 139 10.6674 139 9.30183C139 7.93629 137.833 6.82538 136.4 6.82538ZM136.4 11.4114C135.178 11.4114 134.184 10.465 134.184 9.30183C134.184 8.13863 135.178 7.19226 136.4 7.19226C137.621 7.19226 138.615 8.13863 138.615 9.30183C138.615 10.465 137.621 11.4114 136.4 11.4114Z" fill="#3F2D3B"/>
<path d="M134.854 8.83122H135.296V10.0076H135.596V8.83122H136.036V8.59173H134.854V8.83122Z" fill="#3F2D3B"/>
<path d="M137.081 9.55763L136.811 8.59173H136.362V10.0076H136.641V8.89304L136.935 10.0076H137.224L137.519 8.89304V10.0076H137.798V8.59173H137.348L137.081 9.55763Z" fill="#3F2D3B"/>
</svg>
