<svg width="306" height="126" viewBox="0 0 306 126" fill="none" xmlns="http://www.w3.org/2000/svg">
<g clip-path="url(#clip0_408_1168)">
<path d="M288.414 0.440552H17.5862C8.11644 0.440552 0.439667 8.13311 0.439667 17.6224V108.378C0.439667 117.867 8.11644 125.559 17.5862 125.559H288.414C297.884 125.559 305.56 117.867 305.56 108.378V17.6224C305.56 8.13311 297.884 0.440552 288.414 0.440552Z" fill="#293C4B" stroke="#FDD015"/>
<path d="M121.051 101.08C121.051 100.002 121.299 99.0342 121.795 98.1778C122.302 97.3213 122.982 96.6552 123.837 96.1794C124.702 95.693 125.646 95.4498 126.67 95.4498C127.841 95.4498 128.881 95.7406 129.788 96.3222C130.706 96.8931 131.371 97.7073 131.782 98.7646H129.614C129.329 98.1831 128.933 97.7496 128.427 97.4641C127.92 97.1786 127.335 97.0359 126.67 97.0359C125.942 97.0359 125.293 97.1997 124.723 97.5275C124.153 97.8553 123.705 98.3258 123.378 98.9391C123.061 99.5523 122.903 100.266 122.903 101.08C122.903 101.894 123.061 102.608 123.378 103.221C123.705 103.835 124.153 104.31 124.723 104.649C125.293 104.976 125.942 105.14 126.67 105.14C127.335 105.14 127.92 104.998 128.427 104.712C128.933 104.427 129.329 103.993 129.614 103.412H131.782C131.371 104.469 130.706 105.283 129.788 105.854C128.881 106.425 127.841 106.711 126.67 106.711C125.636 106.711 124.691 106.473 123.837 105.997C122.982 105.51 122.302 104.839 121.795 103.983C121.299 103.126 121.051 102.159 121.051 101.08ZM137.677 106.758C136.854 106.758 136.11 106.573 135.445 106.203C134.781 105.822 134.258 105.294 133.879 104.617C133.499 103.93 133.309 103.137 133.309 102.238C133.309 101.35 133.504 100.562 133.894 99.8748C134.285 99.1876 134.818 98.6589 135.493 98.2888C136.168 97.9187 136.923 97.7337 137.756 97.7337C138.59 97.7337 139.344 97.9187 140.02 98.2888C140.695 98.6589 141.228 99.1876 141.618 99.8748C142.009 100.562 142.204 101.35 142.204 102.238C142.204 103.126 142.003 103.914 141.602 104.601C141.201 105.288 140.653 105.822 139.956 106.203C139.27 106.573 138.511 106.758 137.677 106.758ZM137.677 105.188C138.141 105.188 138.574 105.077 138.975 104.855C139.387 104.633 139.719 104.3 139.972 103.856C140.225 103.412 140.352 102.872 140.352 102.238C140.352 101.604 140.231 101.07 139.988 100.636C139.745 100.192 139.423 99.859 139.022 99.6369C138.622 99.4149 138.189 99.3039 137.725 99.3039C137.26 99.3039 136.828 99.4149 136.427 99.6369C136.036 99.859 135.725 100.192 135.493 100.636C135.261 101.07 135.145 101.604 135.145 102.238C135.145 103.179 135.382 103.909 135.857 104.427C136.342 104.934 136.949 105.188 137.677 105.188ZM144.905 96.7187C144.578 96.7187 144.304 96.6076 144.082 96.3856C143.86 96.1636 143.75 95.8886 143.75 95.5609C143.75 95.2331 143.86 94.9582 144.082 94.7361C144.304 94.5141 144.578 94.4031 144.905 94.4031C145.222 94.4031 145.491 94.5141 145.712 94.7361C145.934 94.9582 146.045 95.2331 146.045 95.5609C146.045 95.8886 145.934 96.1636 145.712 96.3856C145.491 96.6076 145.222 96.7187 144.905 96.7187ZM145.791 97.8764V106.615H143.987V97.8764H145.791ZM152.56 97.7337C153.246 97.7337 153.858 97.8764 154.396 98.1619C154.945 98.4474 155.372 98.8703 155.678 99.4307C155.984 99.9911 156.137 100.668 156.137 101.461V106.615H154.349V101.73C154.349 100.948 154.154 100.351 153.763 99.9383C153.373 99.5153 152.84 99.3039 152.165 99.3039C151.489 99.3039 150.951 99.5153 150.55 99.9383C150.16 100.351 149.965 100.948 149.965 101.73V106.615H148.16V97.8764H149.965V98.8756C150.26 98.5161 150.635 98.2359 151.088 98.035C151.553 97.8342 152.043 97.7337 152.56 97.7337ZM161.605 106.758C160.919 106.758 160.302 106.637 159.753 106.393C159.215 106.14 158.788 105.801 158.471 105.378C158.155 104.945 157.986 104.464 157.965 103.935H159.832C159.864 104.305 160.038 104.617 160.355 104.871C160.682 105.114 161.088 105.236 161.573 105.236C162.08 105.236 162.47 105.14 162.745 104.95C163.029 104.749 163.172 104.495 163.172 104.189C163.172 103.861 163.014 103.618 162.697 103.459C162.391 103.301 161.9 103.126 161.225 102.936C160.571 102.756 160.038 102.582 159.626 102.412C159.215 102.243 158.856 101.984 158.55 101.635C158.255 101.286 158.107 100.826 158.107 100.255C158.107 99.7902 158.244 99.3673 158.519 98.9867C158.793 98.5954 159.183 98.2888 159.69 98.0668C160.207 97.8447 160.798 97.7337 161.462 97.7337C162.454 97.7337 163.251 97.9875 163.852 98.495C164.464 98.9919 164.792 99.6739 164.834 100.541H163.029C162.998 100.15 162.839 99.8378 162.555 99.6052C162.27 99.3726 161.885 99.2563 161.399 99.2563C160.924 99.2563 160.56 99.3462 160.307 99.5259C160.054 99.7057 159.927 99.9436 159.927 100.24C159.927 100.472 160.012 100.668 160.18 100.826C160.349 100.985 160.555 101.112 160.798 101.207C161.04 101.292 161.399 101.403 161.874 101.54C162.507 101.709 163.024 101.884 163.425 102.064C163.837 102.233 164.19 102.486 164.486 102.825C164.781 103.163 164.934 103.613 164.945 104.173C164.945 104.67 164.807 105.114 164.533 105.505C164.259 105.896 163.868 106.203 163.362 106.425C162.866 106.647 162.28 106.758 161.605 106.758Z" fill="#C4C4C4"/>
<path d="M122.069 57.5194V54.009H130.004V84.5874H126.121V57.5194H122.069ZM138.459 84.8411C137.727 84.8411 137.108 84.5874 136.602 84.0799C136.095 83.5723 135.842 82.952 135.842 82.2189C135.842 81.4858 136.095 80.8655 136.602 80.358C137.108 79.8505 137.727 79.5967 138.459 79.5967C139.162 79.5967 139.753 79.8505 140.232 80.358C140.738 80.8655 140.991 81.4858 140.991 82.2189C140.991 82.952 140.738 83.5723 140.232 84.0799C139.753 84.5874 139.162 84.8411 138.459 84.8411ZM144.535 77.7781V74.8598L159.349 54.3051H163.95V74.4369H168.171V77.7781H163.95V84.5874H160.151V77.7781H144.535ZM160.32 58.323L148.967 74.4369H160.32V58.323ZM213.734 55.3201V84.5874H209.893V62.7638L200.186 84.5874H197.484L187.735 62.7215V84.5874H183.894V55.3201H188.03L198.835 79.5121L209.64 55.3201H213.734Z" fill="white"/>
<path d="M90.3192 67.3707L83.5345 70.0936L86.3454 62.3505L98.9154 67.2403L92.1201 85.9587L90.3192 67.3707Z" fill="#67C18C"/>
<path d="M105.302 73.1991L92.1209 85.9584L98.9162 67.24L111.486 72.1305L108.676 79.8736L105.302 73.1991Z" fill="#1D915C"/>
<path d="M98.9189 67.2225L98.9136 67.2369L86.3473 62.3485L86.3493 62.3427L103.49 54.6307L98.9189 67.2225Z" fill="#48785D"/>
<path d="M111.471 72.121L98.9127 67.2357L98.9215 67.2126L103.49 54.6294L111.471 72.121Z" fill="#485950"/>
<path d="M84.3156 21.531L80.5803 28.7474V32.6014H78.3644V28.7474L74.6133 21.531H77.114L79.4882 26.5904L81.8465 21.531H84.3156ZM89.4874 32.7441C88.6433 32.7441 87.8832 32.5591 87.2079 32.189C86.5326 31.8084 85.9997 31.2744 85.6093 30.5871C85.2295 29.8999 85.0395 29.1069 85.0395 28.2081C85.0395 27.3094 85.2347 26.5164 85.6251 25.8291C86.0261 25.1418 86.5695 24.6131 87.2554 24.2431C87.9416 23.8624 88.7066 23.6721 89.5507 23.6721C90.3949 23.6721 91.1599 23.8624 91.8457 24.2431C92.5316 24.6131 93.0697 25.1418 93.4602 25.8291C93.8611 26.5164 94.0616 27.3094 94.0616 28.2081C94.0616 29.1069 93.8558 29.8999 93.4443 30.5871C93.0434 31.2744 92.4947 31.8084 91.7983 32.189C91.1124 32.5591 90.3421 32.7441 89.4874 32.7441ZM89.4874 30.8092C89.8884 30.8092 90.263 30.714 90.6112 30.5237C90.9699 30.3228 91.2548 30.0267 91.4659 29.6355C91.6769 29.2443 91.7824 28.7685 91.7824 28.2081C91.7824 27.3728 91.5608 26.7331 91.1177 26.289C90.6851 25.8344 90.1522 25.607 89.5191 25.607C88.886 25.607 88.3531 25.8344 87.9201 26.289C87.4981 26.7331 87.287 27.3728 87.287 28.2081C87.287 29.0434 87.4928 29.6884 87.9043 30.143C88.3267 30.5871 88.8543 30.8092 89.4874 30.8092ZM103.964 23.8149V32.6014H101.733V31.4912C101.448 31.8718 101.073 32.1731 100.609 32.3952C100.155 32.6067 99.6593 32.7124 99.1212 32.7124C98.4353 32.7124 97.8286 32.5696 97.301 32.2842C96.7734 31.9881 96.3566 31.5599 96.0506 30.9995C95.7552 30.4285 95.6074 29.7518 95.6074 28.9694V23.8149H97.8233V28.6522C97.8233 29.35 97.9974 29.8893 98.3456 30.2699C98.6938 30.64 99.1686 30.825 99.7701 30.825C100.382 30.825 100.862 30.64 101.21 30.2699C101.559 29.8893 101.733 29.35 101.733 28.6522V23.8149H103.964ZM108.367 25.1788C108.652 24.7136 109.021 24.3488 109.475 24.0845C109.939 23.8201 110.467 23.688 111.058 23.688V26.0194H110.472C109.776 26.0194 109.248 26.1833 108.889 26.5111C108.541 26.8389 108.367 27.4098 108.367 28.224V32.6014H106.151V23.8149H108.367V25.1788ZM123.839 21.531V23.3232H120.896V32.6014H118.68V23.3232H115.736V21.531H123.839ZM128.812 32.7441C128.094 32.7441 127.451 32.6172 126.881 32.3635C126.311 32.0991 125.857 31.7449 125.52 31.3008C125.193 30.8568 125.013 30.3651 124.982 29.8258H127.213C127.256 30.1642 127.419 30.4444 127.704 30.6664C127.999 30.8885 128.363 30.9995 128.796 30.9995C129.218 30.9995 129.545 30.9149 129.777 30.7457C130.02 30.5766 130.141 30.3598 130.141 30.0955C130.141 29.81 129.994 29.5985 129.698 29.4611C129.413 29.313 128.954 29.1544 128.321 28.9853C127.667 28.8267 127.129 28.6628 126.707 28.4936C126.295 28.3244 125.937 28.0654 125.631 27.7164C125.335 27.3675 125.187 26.897 125.187 26.3049C125.187 25.8185 125.325 25.3744 125.599 24.9726C125.884 24.5709 126.285 24.2536 126.802 24.021C127.329 23.7884 127.947 23.6721 128.654 23.6721C129.698 23.6721 130.532 23.9364 131.154 24.4651C131.777 24.9832 132.12 25.6863 132.183 26.5745H130.062C130.031 26.2256 129.883 25.9507 129.619 25.7498C129.366 25.5383 129.023 25.4326 128.59 25.4326C128.189 25.4326 127.878 25.5066 127.657 25.6546C127.445 25.8027 127.34 26.0088 127.34 26.2732C127.34 26.5692 127.488 26.7966 127.783 26.9552C128.079 27.1032 128.538 27.2565 129.16 27.4151C129.793 27.5737 130.316 27.7376 130.727 27.9068C131.139 28.0759 131.492 28.3403 131.788 28.6998C132.094 29.0487 132.252 29.5139 132.262 30.0955C132.262 30.603 132.12 31.0576 131.835 31.4594C131.561 31.8612 131.16 32.1784 130.632 32.411C130.115 32.6331 129.508 32.7441 128.812 32.7441ZM137.974 32.7441C137.13 32.7441 136.371 32.5591 135.695 32.189C135.02 31.8084 134.487 31.2744 134.097 30.5871C133.717 29.8999 133.527 29.1069 133.527 28.2081C133.527 27.3094 133.722 26.5164 134.112 25.8291C134.513 25.1418 135.057 24.6131 135.743 24.2431C136.429 23.8624 137.194 23.6721 138.038 23.6721C138.882 23.6721 139.647 23.8624 140.333 24.2431C141.019 24.6131 141.557 25.1418 141.947 25.8291C142.348 26.5164 142.549 27.3094 142.549 28.2081C142.549 29.1069 142.343 29.8999 141.931 30.5871C141.53 31.2744 140.982 31.8084 140.285 32.189C139.599 32.5591 138.829 32.7441 137.974 32.7441ZM137.974 30.8092C138.375 30.8092 138.75 30.714 139.098 30.5237C139.457 30.3228 139.742 30.0267 139.953 29.6355C140.164 29.2443 140.269 28.7685 140.269 28.2081C140.269 27.3728 140.048 26.7331 139.605 26.289C139.172 25.8344 138.639 25.607 138.006 25.607C137.373 25.607 136.84 25.8344 136.407 26.289C135.985 26.7331 135.774 27.3728 135.774 28.2081C135.774 29.0434 135.98 29.6884 136.392 30.143C136.814 30.5871 137.341 30.8092 137.974 30.8092ZM156.33 23.8149L153.766 32.6014H151.376L149.777 26.4635L148.179 32.6014H145.773L143.193 23.8149H145.441L146.992 30.5078L148.669 23.8149H151.012L152.658 30.492L154.209 23.8149H156.33ZM170.749 32.6014H168.533L163.516 25.0044V32.6014H161.3V21.5151H163.516L168.533 29.128V21.5151H170.749V32.6014ZM181.09 28.0178C181.09 28.335 181.069 28.6205 181.027 28.8742H174.617C174.67 29.5086 174.891 30.0056 175.282 30.3651C175.672 30.7246 176.152 30.9043 176.722 30.9043C177.545 30.9043 178.131 30.5501 178.479 29.8417H180.869C180.616 30.6876 180.13 31.3854 179.413 31.9352C178.695 32.4745 177.814 32.7441 176.77 32.7441C175.925 32.7441 175.166 32.5591 174.49 32.189C173.826 31.8084 173.303 31.2744 172.923 30.5871C172.554 29.8999 172.369 29.1069 172.369 28.2081C172.369 27.2988 172.554 26.5005 172.923 25.8132C173.293 25.126 173.81 24.5973 174.475 24.2272C175.139 23.8571 175.904 23.6721 176.77 23.6721C177.603 23.6721 178.347 23.8519 179.001 24.2114C179.666 24.5709 180.178 25.0837 180.536 25.7498C180.906 26.4053 181.09 27.1613 181.09 28.0178ZM178.795 27.3834C178.785 26.8124 178.579 26.3578 178.178 26.0194C177.777 25.6705 177.287 25.496 176.706 25.496C176.158 25.496 175.693 25.6652 175.313 26.0036C174.944 26.3313 174.717 26.7913 174.633 27.3834H178.795ZM185.287 25.6388V29.8893C185.287 30.1853 185.356 30.4021 185.493 30.5396C185.641 30.6664 185.884 30.7299 186.221 30.7299H187.25V32.6014H185.857C183.99 32.6014 183.056 31.6921 183.056 29.8734V25.6388H182.011V23.8149H183.056V21.642H185.287V23.8149H187.25V25.6388H185.287ZM200.999 23.8149L198.435 32.6014H196.045L194.446 26.4635L192.848 32.6014H190.442L187.862 23.8149H190.11L191.661 30.5078L193.338 23.8149H195.681L197.327 30.492L198.878 23.8149H200.999ZM206.092 32.7441C205.248 32.7441 204.488 32.5591 203.813 32.189C203.137 31.8084 202.605 31.2744 202.214 30.5871C201.834 29.8999 201.644 29.1069 201.644 28.2081C201.644 27.3094 201.84 26.5164 202.23 25.8291C202.631 25.1418 203.174 24.6131 203.86 24.2431C204.546 23.8624 205.311 23.6721 206.155 23.6721C206.999 23.6721 207.764 23.8624 208.45 24.2431C209.136 24.6131 209.674 25.1418 210.065 25.8291C210.466 26.5164 210.666 27.3094 210.666 28.2081C210.666 29.1069 210.46 29.8999 210.049 30.5871C209.648 31.2744 209.099 31.8084 208.403 32.189C207.717 32.5591 206.947 32.7441 206.092 32.7441ZM206.092 30.8092C206.493 30.8092 206.867 30.714 207.216 30.5237C207.574 30.3228 207.859 30.0267 208.07 29.6355C208.281 29.2443 208.387 28.7685 208.387 28.2081C208.387 27.3728 208.165 26.7331 207.722 26.289C207.29 25.8344 206.757 25.607 206.124 25.607C205.49 25.607 204.958 25.8344 204.525 26.289C204.103 26.7331 203.892 27.3728 203.892 28.2081C203.892 29.0434 204.098 29.6884 204.509 30.143C204.931 30.5871 205.459 30.8092 206.092 30.8092ZM214.508 25.1788C214.793 24.7136 215.162 24.3488 215.616 24.0845C216.08 23.8201 216.608 23.688 217.198 23.688V26.0194H216.613C215.916 26.0194 215.389 26.1833 215.03 26.5111C214.682 26.8389 214.508 27.4098 214.508 28.224V32.6014H212.292V23.8149H214.508V25.1788ZM221.271 25.6388V29.8893C221.271 30.1853 221.339 30.4021 221.476 30.5396C221.624 30.6664 221.867 30.7299 222.204 30.7299H223.233V32.6014H221.84C219.973 32.6014 219.039 31.6921 219.039 29.8734V25.6388H217.994V23.8149H219.039V21.642H221.271V23.8149H223.233V25.6388H221.271ZM229.765 23.688C230.429 23.688 231.02 23.836 231.537 24.1321C232.054 24.4175 232.455 24.8458 232.74 25.4167C233.036 25.9771 233.183 26.6538 233.183 27.4468V32.6014H230.968V27.7482C230.968 27.0503 230.793 26.5164 230.445 26.1463C230.097 25.7657 229.622 25.5753 229.021 25.5753C228.409 25.5753 227.923 25.7657 227.565 26.1463C227.216 26.5164 227.042 27.0503 227.042 27.7482V32.6014H224.826V20.8649H227.042V24.9092C227.327 24.5286 227.707 24.2325 228.182 24.021C228.657 23.799 229.184 23.688 229.765 23.688Z" fill="white"/>
</g>
<defs>
<clipPath id="clip0_408_1168">
<rect width="306" height="126" fill="white"/>
</clipPath>
</defs>
</svg>
